<?xml version="1.0" standalone="no"?>
<!DOCTYPE svg PUBLIC "-//W3C//DTD SVG 1.1//EN" "http://www.w3.org/Graphics/SVG/1.1/DTD/svg11.dtd" >
<svg xmlns="http://www.w3.org/2000/svg">
<metadata>
Created by FontPrep 20130207 at Mon Nov  2 12:55:59 2015
 By Ben Racher
http://www.daaams.fr.st
</metadata>
<defs>
<font id="19168d0bf6f274fb7ff5e53ba0ec0580" horiz-adv-x='1024' >
  <font-face 
    font-family="Abuse"
    font-weight="400"
    font-stretch="normal"
    units-per-em="2048"
    panose-1="2 0 0 0 0 0 0 0 0 0"
    ascent="1638"
    descent="-410"
    x-height="1286"
    cap-height="1713"
    bbox="-170 -596.901 2231.65 1728.52"
    underline-thickness="102"
    underline-position="-102"
    unicode-range="U+0020-20AC"
  />
<missing-glyph 
 />
    <glyph glyph-name=".notdef" 
 />
    <glyph glyph-name=".null" horiz-adv-x="0" 
 />
    <glyph glyph-name="nonmarkingreturn" 
 />
    <glyph glyph-name="space" unicode=" " 
 />
    <glyph glyph-name="space" unicode="&#xa0;" 
 />
    <glyph glyph-name="exclam" unicode="!" 
d="M573 66q6 37 29 56t68.5 20.5t64.5 -68.5v-92q-2 -43 -25.5 -65.5t-52 -24t-54 18t-30.5 62.5v93zM563 293l3 483q3 483 -11 705q6 37 28.5 56t49 20.5t50.5 -15t34 -53.5q17 -224 15 -529.5t-7 -658.5q-2 -43 -25.5 -65.5t-52.5 -23.5t-54.5 18.5t-29.5 62.5z" />
    <glyph glyph-name="quotedbl" unicode="&#x22;" 
d="M766 1116.5q0 26.5 3 52.5t-9 125q-4 43 15.5 69t48 32t56 -9.5t40.5 -56.5q14 -95 11 -158.5t3 -138.5q-2 -43 -25.5 -65.5t-52.5 -23.5t-54.5 19t-30.5 74t-5 80.5zM438 1116.5q0 26.5 3 52.5t-9 125q-4 43 15.5 69t48 32t56.5 -9.5t40 -56.5q14 -95 11 -158.5
t3 -138.5q-2 -43 -25.5 -65.5t-52 -23.5t-53.5 19t-31 74t-6 80.5z" />
    <glyph glyph-name="numbersign" unicode="#" horiz-adv-x="1343" 
d="M751 292l-259 28q-30 -167 -60 -306q-14 -41 -44 -54t-57.5 -5t-46 35.5t-10.5 68.5q27 128 55 278q-79 9 -141 15t-81 32t-18 54.5t23.5 52t65.5 25.5q91 -10 181 -19q23 122 41 205t26 127q-184 4 -369 5q-43 4 -62.5 29.5t-18.5 54t24 52t66 25.5q198 -1 396 -4
q12 53 39 165t81 253q23 37 54.5 45t57 -4t37.5 -42t-2 -71q-53 -145 -102 -350q131 -3 262 -8q59 262 123 430q23 37 54.5 45t57 -4t38 -42t-2.5 -71q-52 -143 -106 -365q141 -6 282 -14q71 -19 69.5 -64.5t-21 -68t-56.5 -28.5q-155 8 -310 14q-36 -166 -74 -375
q153 -13 308 -22q71 -19 69.5 -65t-21 -68.5t-56.5 -28.5q-166 10 -329 25q-26 -142 -52 -263q-14 -41 -44 -54t-57.5 -5t-46 35.5t-9.5 68.5q23 108 46 233zM521 480l260 -28q39 210 72 365q-132 5 -263 8q-47 -221 -69 -345z" />
    <glyph glyph-name="dollar" unicode="$" horiz-adv-x="1380" 
d="M408 582q-186 0 -259 36.5t-86 77.5q-10 41 -46.5 134t134.5 305q39 49 87 94q-39 171 -50 297q6 37 29 56.5t68.5 21t64.5 -69.5q8 -98 28 -196q50 31 89 48q-23 110 -33 222q6 37 28.5 56t68.5 21.5t65 -69.5q7 -90 25 -180q92 15 151 -7t96 -38q72 -67 125.5 -165
t57.5 -102q28 -78 -12 -98t-71.5 -15t-58.5 31q-8 12 -55.5 98.5t-76.5 110.5t-96 22q-11 0 -21 -2q40 -146 81 -269.5t57 -179.5t20 -63q510 32 595 -151q18 -37 16 -79t-1 -78q2 -64 -71 -170.5t-327 -202.5q41 -131 80 -262q12 -41 -3 -70t-42 -39t-57.5 1t-51.5 48
q-41 139 -83 277q-47 -10 -95 -17q44 -140 86 -282q12 -41 -3 -70t-41.5 -39t-57.5 1.5t-51 47.5q-49 164 -100 327q-12 1 -44 -1t-87.5 6t-107.5 12q-106 8 -211.5 92t-101.5 191q4 55 29 106.5t43 104.5q20 33 48 44t52.5 4t42 -31.5t15.5 -61.5q-28 -82 -58 -164
q10 -16 14.5 -35.5t20.5 -31.5q68 -52 149 -64t146 -13q-67 210 -132 423h-21zM823 191l-128 409q-46 -4 -71 -6t-27 -3q98 -320 132 -418q48 7 94 18zM862 611l118 -375q108 42 179.5 93.5t104.5 129.5q6 16 2 34.5t-6 36.5q-14 10 -27.5 23.5t-85.5 38.5q-71 25 -285 19z
M506 1219q-43 -21 -86 -51q31 -116 69 -232q39 -116 63 -193q40 1 97 5q-28 92 -73 233q-46 140 -70 238zM380 744q-17 54 -42 130t-53 176q-83 -99 -92 -200q-2 -18 6 -35.5t12 -36.5q58 -27 169 -34z" />
    <glyph glyph-name="percent" unicode="%" horiz-adv-x="1167" 
d="M1020 1333q28 25 58 26q60 2 79 -59q8 -29 -4 -63q-129 -190 -241 -354q-363 -531 -615 -1043q-25 -29 -53 -35q-57 -12 -87 44q-13 26 -7 63q256 520 625 1060q114 166 245 361zM896 557q28 28 71 29q89 -6 110 -17q98 -46 91 -188q-6 -142 -90 -271t-165 -133
q-150 -7 -204 109q-51 105 -8 246q44 141 159 211q12 8 36 14zM1004 415q-5 -4 -41 -11q-59 -12 -96 -80q-36 -68 -26 -115q11 -47 38 -68q74 55 107 153q32 98 18 121zM317 1169q81 39 158 8q92 -37 115 -153q24 -116 -16 -204t-109 -126q-68 -38 -97 -38h-70
q-40 -1 -77 28q-74 58 -85 180q-10 122 38 206q48 85 119 95q14 2 24 4zM315 986q-22 -32 -21 -78t17 -72t50 -12q33 13 53 49t23 72t-8 61q-11 24 -31 16t-38 -16t-30 -14t-15 -6z" />
    <glyph glyph-name="ampersand" unicode="&#x26;" horiz-adv-x="1300" 
d="M1305 139q63 -47 38 -102q-9 -25 -35 -40t-63 -11q-138 42 -256 104q-22 -28 -51 -49q-381 -293 -682 -164q-111 47 -203 174q-169 239 -24 453q82 127 228 232q63 46 124 87q-1 4 -2 7q-59 190 4 337q33 78 130 140t213 38q115 -24 167 -119t-14 -222q-31 -59 -116 -128
t-184 -125q5 -11 11 -22q130 -253 348 -412q39 94 20 179q-8 41 -12 82q6 37 29 56q49 40 99 5q24 -16 34 -53q16 -138 15 -213q-2 -75 -41 -144q105 -54 223 -90zM510 996q0 -44 10 -87q3 3 28 19q26 16 76 54q189 142 103 189q-63 35 -116 4t-77 -83t-24 -96zM440 666
q-333 -208 -305 -387q17 -105 77 -169t141 -88q211 -63 438 110q29 23 54 49q-107 80 -183 169q-166 196 -222 316z" />
    <glyph glyph-name="quotesingle" unicode="'" horiz-adv-x="358" 
d="M166 1212q-13 43 -19 78q6 36 29 56q48 41 99 6q19 -13 30 -39q-3 20 -1 17t7 -20q3 -17 9 -40t11 -61t-22 -129t-69 -178t-86 -173q-25 -29 -54 -35q-30 -6 -52 6q-54 29 -42 101l98 200t62 211z" />
    <glyph glyph-name="parenleft" unicode="(" horiz-adv-x="546" 
d="M452 -389q-32 0 -63 31q-279 312 -340 626t37 746q29 132 137 283t230 180q37 3 61 -15q51 -37 28 -95q-11 -28 -44 -48q-29 -6 -71 -49q-42 -42 -82 -106q-95 -150 -118 -277q-52 -282 -40 -428q19 -263 123 -441q73 -124 99 -154q25 -30 49 -56t56 -62q25 -35 20 -67
t-27 -50q-23 -18 -55 -18z" />
    <glyph glyph-name="parenright" unicode=")" horiz-adv-x="516" 
d="M63 -389q-37 0 -60 17.5t-35.5 58.5t52.5 84q60 12 156 156t120 272q55 291 38.5 512.5t-110.5 366.5t-204 265q-25 35 -18.5 67t28 50.5t53.5 17.5t62 -32q279 -320 335.5 -628.5t-46.5 -745.5q-27 -123 -137 -279.5t-234 -181.5z" />
    <glyph glyph-name="asterisk" unicode="*" horiz-adv-x="632" 
d="M271 1407q0 5 -1 10h3q5 33 36 49.5t68 11.5t57 -67q1 -101 16 -195q53 -5 107 -6q71 -19 69.5 -64.5t-21 -68t-56.5 -28.5q-32 0 -63 2q29 -99 77 -199q12 -41 -3 -69.5t-41.5 -39t-57.5 1t-51 48.5q-56 120 -88 240q-44 -116 -109 -222q-49 -59 -119 -25q-18 16 -47 68
q-7 65 43 94q18 48 37 86q18 38 31 65q-30 3 -66 6t-56 28.5t-19 54.5t23.5 52.5t65.5 25.5q59 -3 117 -12q9 26 47 153h1z" />
    <glyph glyph-name="plus" unicode="+" horiz-adv-x="950" 
d="M639 627l45 -518q-2 -43 -25.5 -66t-52 -24t-54.5 18.5t-30 62.5q-10 145 -22 271t-22 238q-68 -7 -135 -12t-133 -11t-132 12q-37 20 -48.5 51t-1 57.5t39 42t56.5 7.5t56.5 -7t58 3t54 4t63.5 5t110 10q-6 85 -12 195t17 240q8 43 34.5 61.5t55.5 15.5t51.5 -27.5
t20.5 -67.5q-25 -126 -19 -226t12 -173q9 1 93 11t246 23q43 2 67.5 -20.5t27.5 -51t-15.5 -55t-61.5 -34.5q-227 -17 -344 -35z" />
    <glyph glyph-name="comma" unicode="," 
d="M579 45q-1 1 -2 1q-24 17 -32 49t14 69q4 2 5 4t3 4q57 49 121 6q30 -30 56 -114t18 -172q-15 -169 -129 -330q-53 -76 -111 -142q-68 -37 -111 7t-5 110q185 200 193 391q3 59 -20 117z" />
    <glyph glyph-name="hyphen" unicode="-" 
d="M78 598q-37 20 -48.5 51t-1 57.5t39 42t56.5 7.5t56.5 -7t58 3t54.5 4t109 9t242.5 26.5t320.5 31.5q43 2 67.5 -20.5t27.5 -51t-15.5 -55t-61.5 -34.5q-160 -12 -319.5 -32t-273.5 -29t-180 -15t-132 12z" />
    <glyph glyph-name="period" unicode="." horiz-adv-x="692" 
d="M455 172q0 -42 10 -115q-1 -37 -19 -59q-39 -47 -96 -21q-27 12 -45 46q-12 105 -12 141q6 37 29 56q50 41 99 5q24 -16 34 -53z" />
    <glyph glyph-name="slash" unicode="/" 
d="M897 1405q20 33 48 44q29 11 53 4t41 -32t16 -61q-29 -88 -71 -168t-136 -300t-463 -1005q-49 -57 -104 -28t-43 100q370 787 520 1139q34 78 74 152t65 155z" />
    <glyph glyph-name="zero" unicode="0" horiz-adv-x="995" 
d="M312 1254h19q14 8 52 11q37 3 97 8t100 -13t64 -26q100 -37 134 -76q35 -40 75 -79q39 -39 61 -92t49 -106t31 -143q9 -233 -29 -349q-38 -115 -93 -198q-117 -177 -258 -251q-140 -74 -271 -64q-131 11 -213 117q-53 68 -72 136q-18 67 -38 139q-41 150 6 387
q48 237 136 437q18 42 48 72t56 65q30 25 46 25zM334 1057q-56 -74 -93 -185q-98 -298 -59 -587q17 -104 61 -171t134 -71q89 -4 171 43q40 24 76 68t71 88q36 44 63 85q53 82 76 218q29 212 -88 399q-135 217 -347 146q-34 -12 -65 -33z" />
    <glyph glyph-name="one" unicode="1" horiz-adv-x="905" 
d="M373 -137q-71 -11 -92 27t-15 67t35 53q95 45 155 75l108 54q-34 223 -42 421t-14 377q-148 -133 -265.5 -180t-151.5 -24t-54 35q-27 27 -31 56.5t9.5 51t41 33t62.5 0.5l18 -12q90 22 204.5 114.5t160.5 160.5q12 135 119 135q72 -20 69 -97q-5 -37 -24 -76
q0 -580 51 -916q3 0 37 18t129 65q41 14 70.5 2t42 -37.5t4 -57.5t-45.5 -54q-153 -77 -287.5 -147t-293.5 -144z" />
    <glyph glyph-name="two" unicode="2" horiz-adv-x="1005" 
d="M250 924q-35 -20 -66 -12t-48 31.5t-14 55t36 60.5q116 90 275 150t267 12q20 -10 44 -38t37 -42q25 -27 28.5 -119.5t-85.5 -233.5t-209 -281t-170 -216t-85 -105.5t-29.5 -32.5t57.5 11t190 21t268.5 27.5t269.5 29.5q43 2 67.5 -20.5t27.5 -51.5t-15.5 -55.5
t-61.5 -34.5q-166 -10 -332 -30t-280 -32t-176 -15t-109 -6t-67 5t-38 26q-35 35 -26 89q45 86 106.5 155.5t138.5 161.5t170 201t153 219t64.5 158.5t-33.5 67t-154 -37t-201 -118.5zM37 20q-1 2 -5 6q2 -3 5 -6z" />
    <glyph glyph-name="three" unicode="3" horiz-adv-x="1189" 
d="M1120 135q-135 -104 -295.5 -166.5t-380.5 -62.5t-299 61q-114 90 -118 110.5t-7 37.5q0 37 -4 75.5t9 73.5q31 88 98 146.5t143 99.5q39 14 67.5 2t41 -36.5t4.5 -55t-45 -52.5t-66.5 -40.5t-59.5 -54.5t-30 -126q12 -12 24.5 -25t28.5 -24q204 -88 480 -4t331.5 217
t-34.5 232q-55 59 -179.5 94t-191.5 16q-67 -18 -130 -34.5t-128 -6.5q-35 20 -45 45t-4 62q29 72 204 196.5t212.5 151.5t57.5 40t26 18t10 7q-68 -3 -178.5 -16.5t-162.5 -15.5t-98.5 0t-74.5 0t-42 -5t-30 -7t-42 1q-26 6 -42 29t-13 53.5t33 57.5q47 31 71 31l220 -7
q66 -2 135.5 7.5t192 23.5t223.5 -8q55 -14 66 -68q10 -80 -159 -204t-223 -157q-53 -33 -62 -39q201 10 378 -83q70 -37 118 -113.5t64.5 -165t-4 -173.5t-90.5 -138z" />
    <glyph glyph-name="four" unicode="4" horiz-adv-x="937" 
d="M543 303q-371 -105 -445 -110q-36 -1 -62 25q-71 68 0 217q106 236 262 452q62 83 142 185l160 204q58 50 109 11q20 -15 28 -44t-4 -63q-67 -86 -155 -194q-314 -388 -390 -611q81 17 171 43t191 54q15 198 54 259q29 25 59 26q61 2 78 -59q7 -27 2 -45t-7 -36
q-1 -17 -4 -39l-5 -38q-1 -11 -3 -21q149 38 218 38l53 -63q2 -2 1 -21q-2 -44 -50 -72q-14 -6 -47 -10t-191 -44q-4 -69 -2 -155t54 -190q12 -41 -3 -70q-15 -28 -42 -38t-58 1t-51 48q-12 29 -19 42q-44 82 -44 318z" />
    <glyph glyph-name="five" unicode="5" horiz-adv-x="1017" 
d="M209 1300q28 0 224 -2.5t317 27.5q37 2 61.5 -15.5t36.5 -59t-53 -83.5q-110 -33 -476 -29h-66q2 -58 -3 -152t-5 -147q158 184 322 220q205 46 323.5 -90t147.5 -348.5t-16 -380.5q-14 -47 -55 -108.5t-41 -63.5q-57 -94 -174 -122t-168 -39q-114 -25 -274 29.5
t-236 157.5q-28 40 -54 100t-26 80.5t4 42t9 42.5t10 53t32 50.5t55.5 15.5t51 -27.5t19.5 -60.5t-9 -61.5t0 -69.5t47 -85t126.5 -77t234.5 -20.5t224 94.5q74 78 90 256.5t-45.5 324t-190.5 149.5q-128 4 -204.5 -82t-116.5 -144.5t-83 -101.5q-41 -25 -76 -13.5t-57 52.5
q-34 108 -28.5 237.5t7.5 202t-12 146.5q-4 43 15 68.5t41 29.5t32 4h39z" />
    <glyph glyph-name="six" unicode="6" horiz-adv-x="991" 
d="M860 1343q70 25 106 -23q36 -49 -14 -106q-39 -23 -117 -53t-119 -51q-122 -60 -266 -218t-211 -330q94 63 197 84q102 22 178 34t155 -8t134 -72t81 -127q26 -77 12 -145t-38 -109q-23 -41 -51 -95t-116 -122q-148 -126 -335 -139q-186 -13 -310 100t-111 332
q16 279 151 507t357 390q110 78 188 102q35 14 67 22t62 27zM192 265q6 -61 31 -131t84 -98q115 -52 267 20q205 95 260 286q26 98 -51 144q-60 39 -162 34q-103 -4 -204 -49t-167 -119q-27 -29 -39 -52t-19 -35z" />
    <glyph glyph-name="seven" unicode="7" horiz-adv-x="915" 
d="M954 1312.5q0 -28.5 -20 -52.5q-25 -23 -47.5 -39.5t-44.5 -40.5q-132 -146 -244 -416l96 2q31 -10 46.5 -35.5t12 -76t-68.5 -62.5q-75 -3 -151 -2q-119 -359 -115 -623q-2 -39 -26.5 -59.5t-55.5 -23.5t-57.5 14.5t-30.5 54.5q-7 290 105 633q-51 -6 -101 -19
q-37 -6 -61.5 15.5t-31.5 52.5t5 61.5t49 42.5q104 23 206 25q90 216 205 391q-194 -43 -397 -27q-47 6 -100 15.5t-96 36.5q-14 16 -15.5 41.5t-5.5 48.5l2 6v2q6 37 44 63.5t81 -16.5q18 -7 45 -9q26 -2 84 -6q144 -13 255.5 -0.5t283.5 62.5q15 8 25 15t15 10t13 10l4 -8
q49 5 70.5 -26.5t21.5 -60z" />
    <glyph glyph-name="eight" unicode="8" horiz-adv-x="1128" 
d="M347 665q-15 -15 -55 -53t-82 -113t-47 -151t18.5 -119t103.5 -106t276.5 -69t295.5 49t133 106t23.5 119.5t-154.5 127t-286 113t-226 96.5zM204 749q-3 2 -5 5q-51 39 -66 82q-41 115 -2 203.5t120 148t187.5 88.5t202.5 20q20 0 80 -29.5t74 -35.5q63 -47 36 -121
q-37 -78 -109.5 -148.5t-229.5 -183.5q60 -24 144 -56t186 -71t151 -76t89 -61t59 -60t40 -68t25 -69q19 -171 -127.5 -278.5t-351 -139t-326.5 14.5q-47 16 -99.5 29.5t-91.5 46.5t-91 81t-62 86q-10 37 -26.5 84t-13.5 123t45 164t88 140t74 81zM332 861q58 47 100 81
t106.5 79.5t105.5 99.5q-178 51 -322 -89q-23 -18 -42.5 -58.5t2.5 -65.5q21 -25 50 -47z" />
    <glyph glyph-name="nine" unicode="9" horiz-adv-x="911" 
d="M199 -172q-33 -16 -61 -10t-43 25q-38 48 5 108q37 25 116 61t117 57q114 61 253 233t191 344q-98 -72 -196 -98q-97 -28 -173 -44t-156 0t-137 63t-87 121t-20 144t31 114q20 43 43 97t113 126q139 135 325 159t315 -81q128 -104 128 -325q2 -280 -121 -516
q-146 -282 -422 -476q-41 -29 -92 -47q-36 -15 -68 -25t-61 -30zM807 943q-9 60 -39 129q-30 70 -90 92q-121 44 -265 -37q-199 -107 -243 -298q-22 -102 57 -143q65 -34 167 -23t200 60q145 72 201 195q5 12 12 25z" />
    <glyph glyph-name="colon" unicode=":" 
d="M602 130q0 12 -4 22q-4 37 11.5 62.5t56 42t86.5 -45.5q15 -41 20 -109q-2 -43 -38.5 -78t-81 -1.5t-44.5 86.5q-6 9 -6 21zM750 876v-34q-2 -43 -26 -65.5t-52.5 -23.5t-54 18.5t-27.5 58.5t-6 67t16 61t51 41.5t56.5 -3.5t36.5 -40t3 -60q3 -15 3 -20z" />
    <glyph glyph-name="semicolon" unicode=";" 
d="M551 63q-16 33 -10 62t25 45t49 17t61 -19q18 -20 40 -40t32 -46q81 -200 -89 -453q-47 -70 -92 -133q-29 -33 -61 -36q-32 -4 -54 14q-24 18 -32 50t14 68q91 120 128 188q96 180 14 256q-14 12 -25 27zM489 801l11 59l-4 8q-4 37 11 63q33 57 92 37q28 -9 50 -40
q14 -39 11 -72t-9 -74q-12 -35 -38 -50q-54 -31 -98 11q-22 20 -26 58z" />
    <glyph glyph-name="less" unicode="&#x3c;" horiz-adv-x="1058" 
d="M918 1126q38 2 62 -15q51 -36 27 -94q-11 -28 -44 -48q-86 -21 -163 -73q-142 -97 -249 -151q-107 -55 -165 -87t-89 -48l51 -27t142 -73t269 -140t312 -196q42 -65 2 -109q-16 -19 -45 -25t-61 9q-141 102 -348 211t-281 142q-238 108 -270 159q-26 54 4 101
q32 31 66 48t122 66t287 154q93 51 181 110t190 86z" />
    <glyph glyph-name="equal" unicode="=" horiz-adv-x="1236" 
d="M374 608h376q315 0 426 -6q70 -19 68.5 -64.5t-21 -68.5t-56.5 -29q-427 -23 -1034 31q-43 4 -62.5 28.5t-18.5 54.5t23.5 53.5t65.5 25.5q173 -25 233 -25zM369 967h379q317 0 428 -6q70 -19 68.5 -65t-21 -68.5t-56.5 -28.5q-434 -23 -1034 30q-43 4 -62.5 29
t-18.5 54.5t23.5 53t65.5 25.5q167 -24 228 -24z" />
    <glyph glyph-name="greater" unicode="&#x3e;" horiz-adv-x="1017" 
d="M203 1126q102 -27 190 -86t177 -107t173 -93q85 -44 145 -78t95 -52t66 -48q30 -50 4 -101q-31 -51 -242 -145q-89 -39 -303 -152t-354 -215q-69 -32 -107 16q-16 19 -17 49t19 60q152 111 322 201t303 158t150 77q-98 54 -228 120q-130 67 -275 166q-77 52 -163 73
q-33 20 -44 48q-23 59 27 94q25 17 62 15z" />
    <glyph glyph-name="question" unicode="?" horiz-adv-x="962" 
d="M491.5 -45q-32.5 0 -63.5 33q-63 67 -70 145q6 37 29 56.5t68.5 21t64.5 -69.5q3 -19 14.5 -30t27.5 -33t10.5 -54t-27 -50.5t-54 -18.5zM416 444q0 -28 8 -44t16 -44t-7 -57t-41.5 -39t-57.5 1t-51 48q0 2 -16.5 48.5t-16.5 78.5q5 182 153.5 326.5t178.5 179.5t60 64.5
t92 107.5t15.5 124.5t-156.5 48t-230 -19t-160 -106.5q6 -12 11 -24.5t11 -24.5q23 -10 45.5 -19.5t42.5 -19.5q35 -25 41 -56.5t-8 -57t-42 -35.5t-62 3q3 -3 -10 4t-62 26t-80 61q-110 150 -2 280q67 76 222 119.5t312.5 33t233.5 -82.5q122 -122 53.5 -251.5t-123.5 -191
t-101 -109.5t-93 -99t-86 -101.5t-64.5 -97t-25.5 -74.5z" />
    <glyph glyph-name="at" unicode="@" horiz-adv-x="2213" 
d="M1344 1064q11 24 26 42q57 49 121 4q70 -87 16 -344q-29 -165 -111 -348q1 -24 5 -72t37 -115q10 -16 28 -23t35 -18q29 6 57 10t52 15q203 107 333 339q130 231 123 464q0 245 -116 338q-83 66 -226 84q-142 18 -287 2q-261 -28 -540 -203q-268 -171 -437 -410
q-258 -357 -262 -747q-2 -216 118 -344q65 -68 177 -103q199 -62 445 -12q245 50 473 166q47 25 87 59t81 66l2 1q49 41 109 91t141 96q41 14 71 2t42 -38t4 -57t-54 -59q-57 -34 -194 -152t-240 -167q-104 -49 -265 -103q-358 -119 -655 -73q-161 25 -290 119
q-43 33 -74 77t-64 86t-44 91t-15 81t-18 89q-14 58 -7 152q8 94 32 174t44 154t66 178t149 249q101 145 231 271q290 283 568 354q144 38 256 64q189 44 379 12t301 -125q148 -115 173 -391q11 -119 -4 -234q-15 -114 -53 -192q-41 -83 -79 -165t-94 -146q-56 -63 -93 -109
t-51 -60t-59 -43q-45 -28 -94 -63q-90 -64 -177 -60t-153 54t-102 128q-128 -166 -273 -180q-109 -9 -162 -1t-119 57t-84 157q-17 108 6 209q58 250 169 400q134 183 373 237q80 18 166 -15zM1239 461q3 5 15 110q32 262 45 335q-62 41 -167 -6q-28 -10 -70 -32t-92 -77
t-87 -123q-103 -189 -98 -333q4 -144 96 -159q161 -26 293 170q37 55 65 115z" />
    <glyph glyph-name="A" unicode="A" horiz-adv-x="1783" 
d="M342 -137q-16 -53 -94 -37q-79 16 -126 56q-86 72 -73 126q14 54 42 106q27 52 45 112t38 123q-6 55 26 80q131 405 373 998q55 86 136 29q32 -35 50 -164q19 -128 99 -288q95 -205 263 -424q128 20 257 38q43 2 68 -20q54 -48 12 -106q-18 -27 -78 -37t-138 -22l16 -18
q206 -226 448 -415q40 -62 2 -110q-16 -19 -45 -25t-61 10q-306 238 -541 529q-89 -14 -229 -38t-333 -51zM559 490q195 33 387 63q-164 227 -235 375z" />
    <glyph glyph-name="B" unicode="B" horiz-adv-x="1396" 
d="M1212.5 1.5q-204.5 -188.5 -474.5 -210.5t-444.5 70t-250.5 190q-18 25 -25.5 57.5t-17.5 61.5q-4 37 11.5 62.5t55.5 42.5t87 -46q37 -106 76.5 -144t93.5 -62q-6 11 -28 51t-48 116q-132 376 -115 822q4 68 5 132q-10 -4 -21 -9q-71 -11 -101 43t29 104
q172 79 356.5 114.5t349 -64t133.5 -256.5q-13 -65 -73 -130q264 26 435 -78.5t171 -391t-204.5 -475zM424 1019q0 -92 3 -151q278 153 296 246t-180 115q-43 5 -84 5q-35 -123 -35 -215zM444 683q33 -258 127 -488t101 -241q256 6 403 144q57 53 106.5 133t82 225.5
t-100.5 260.5q-127 115 -430 53q-144 -25 -289 -87z" />
    <glyph glyph-name="C" unicode="C" horiz-adv-x="1443" 
d="M623 54q-92 -3 -150 -3q-58 -1 -110 15t-109 34q-35 14 -65 41q-29 27 -75 63t-77 112q-31 77 -38 162q-14 174 42 314q103 255 338 415q234 160 528 223q331 80 385 -35q24 -51 4 -105t-56 -109t-73 -107t-45 -99q-14 -41 -44 -54t-58 -5t-45 35q-18 28 -7 83
q11 56 47 110t59 87q24 33 42 65q-110 -6 -192 -16t-150 -40q-134 -59 -239 -241q-80 -134 -88 -344t96 -321q73 -77 138 -82t175 36q111 42 207 81t184 104q88 66 172 137q35 12 64 4t44 -28t14 -50t-25 -59q-322 -273 -676 -381q-126 -38 -217 -42z" />
    <glyph glyph-name="D" unicode="D" horiz-adv-x="1564" 
d="M4 1448q0 32 18 54t51 27q32 5 66 -20q72 -55 148 -98t176 -101q99 -58 245 -138q750 -418 836 -828q47 -216 -103 -360q-150 -143 -497 -182q-403 -43 -840 104q-37 20 -48 51t-1 57t39 42q29 15 68 3t85 -20t74 -29q18 -3 37 -7q-122 406 -90 901q10 151 24 314
q-161 92 -257 166q-31 31 -31 64zM590 1047q-39 -438 49 -808q30 -128 76 -275q153 -5 301 18q284 45 356 184t-92 358q-185 247 -680 523q-91 51 -174 97zM658 -33q-161 23 -216 23q109 -16 216 -23z" />
    <glyph glyph-name="E" unicode="E" horiz-adv-x="1077" 
d="M903 1444q43 2 67.5 -20.5t27.5 -51.5t-15.5 -55.5t-74.5 -36.5q-68 -12 -211 -50.5t-214 -50.5t-96 -13t-35 -23q-52 -111 -33 -377q38 9 129 29t216 65q41 14 70.5 2t41.5 -37.5t4 -57.5t-45 -54q-137 -53 -240 -74t-165 -36q25 -363 84 -408q20 -15 98 19t123 53.5
t86 35.5t86 34.5t99 38.5t83 7.5t41 -38.5t4 -57.5t-45 -54.5q-82 -31 -165.5 -60t-151.5 -59t-215.5 -108t-290.5 -33q-131 40 -136.5 302.5t-16.5 385.5t-12 183t-6 181.5t54 191.5q39 47 78 64t80 24.5t85 10t134 18.5t217 51.5t260 58.5z" />
    <glyph glyph-name="F" unicode="F" horiz-adv-x="976" 
d="M720 1346q140 0 324 14q43 2 68 -17.5t29 -45t-13.5 -50t-60.5 -33.5q-360 -30 -476 -30t-174 6q-6 -114 8 -188t19 -100q64 14 138 32q37 2 61.5 -15.5t36.5 -59t-53 -83.5q-55 -12 -91 -20t-52 -11q62 -206 143.5 -375t146.5 -290q10 -35 -27.5 -56.5t-92 -27.5t-111 4
t-82.5 37q-212 385 -302 718q-34 34 -25 78q1 6 4 12q-49 227 -35 403q-10 3 -19 5q-58 -26 -99 15t-3 108q6 6 14 19q55 44 196 4t264.5 -46.5t263.5 -6.5z" />
    <glyph glyph-name="G" unicode="G" horiz-adv-x="1191" 
d="M641 449q-41 -8 -69 10t-35 46q-8 27 5 57t54 44q43 24 83 50q203 135 552 239q37 2 61 -15t32 -42q17 -61 -48 -101q-196 -58 -261 -85q102 -93 77 -221t-105 -217q-162 -180 -418 -209q-123 -13 -219 17t-147 74t-95 98q-76 91 -88 207q-4 73 -7 165t55 204
q155 296 516 533q155 108 280 125q51 8 96 -14q44 -22 56 -60q22 -70 -20 -158t-53 -107t-24 -54q-14 -35 -7 -56t-4 -49q-10 -28 -32 -40q-22 -13 -52 -9t-56 30q-57 99 31 256q23 41 41 82q-66 -13 -160 -80q-354 -237 -341 -528q5 -113 71 -221q117 -194 249 -203
q133 -9 230 143q31 50 33 96t-16 72t-51 28q-32 1 -67 -38q-20 -11 -32 -14t-36 -20t-79 -35z" />
    <glyph glyph-name="H" unicode="H" horiz-adv-x="1021" 
d="M785 1418q64 0 81 -68q0 -432 33 -713.5t164 -583.5q12 -41 -3.5 -69.5t-42 -39t-57 1t-51.5 48.5q-123 285 -168 598q-61 2 -129 7t-138 5t-134 -7q68 -271 264 -521q25 -35 -0.5 -72t-73 -60.5t-100.5 -27.5t-84 27q-254 320 -293 622.5t-37 444.5l35 303
q20 33 65.5 44t92.5 4t82 -30.5t32 -73.5t-9.5 -137.5t-10.5 -173.5t8 -189q124 14 411 -1q-15 154 -17 515q-13 35 -1 65q2 4 4 22q3 20 26 40t51 20z" />
    <glyph glyph-name="I" unicode="I" horiz-adv-x="450" 
d="M59 1671q19 33 61 42q91 20 154 -36q31 -27 29 -63q-26 -55 -14 -164q0 -37 -31 -53q-67 -35 -149 6q-39 18 -58 51q-18 136 8 217zM66 1264q20 33 60 44q89 25 149 -25q30 -24 28 -60q0 -158 4 -298q13 -452 213 -814q10 -35 -14 -64t-63 -42q-38 -13 -81 -10t-69 30
q-222 402 -228 908q-3 157 1 331z" />
    <glyph glyph-name="J" unicode="J" horiz-adv-x="1099" 
d="M993 -29q-166 0 -405.5 61.5t-382 119t-207 152t62.5 224.5q33 35 70 61.5t72 53.5q71 24 97 -10.5t25 -64t-26 -58.5q-95 -60 -119 -88.5t-28 -50.5q48 -48 201 -102.5t313.5 -78.5t210.5 15q35 91 6.5 188t-167 380.5t-193.5 441.5q-109 -2 -220 8q-43 4 -62.5 29.5
t-18.5 54t23.5 52t65.5 25.5q180 -16 353.5 1.5t351.5 46.5q43 2 67.5 -20.5t27.5 -51.5t-15.5 -55.5t-61.5 -34.5q-101 -16 -202 -29q85 -158 188.5 -394t142.5 -342t59.5 -165t36.5 -165t-59 -171q-41 -33 -207 -33z" />
    <glyph glyph-name="K" unicode="K" horiz-adv-x="1134" 
d="M4 1198v72q0 67 2 84q2 -6 2 -14q2 34 36 64t82 45t92 6t56 -50q15 -74 5.5 -174.5t-17.5 -180.5t16 -233q23 23 39 41q288 297 428 584q23 37 54.5 45t57.5 -4.5t38 -42t-2 -70.5q-87 -174 -187 -306t-189 -232q23 -26 50 -71.5t51 -78.5t60 -87.5t102 -146.5
t170.5 -201.5t239.5 -195.5q35 -25 41 -56.5t-8.5 -57t-45 -36t-69.5 8.5q-256 162 -408.5 375t-196.5 277t-71.5 99.5t-32.5 45.5q-61 -61 -82 -76q21 -78 51 -155q89 -237 214 -445q10 -35 -24 -69t-84 -54.5t-102.5 -22.5t-78.5 25q-249 418 -287 840q-12 162 -7 302
t5 146z" />
    <glyph glyph-name="L" unicode="L" horiz-adv-x="956" 
d="M4 80q0 32 17 52q0 6 38 150t89 418q52 274 61 562q6 37 47 55t90 18t91 -18t52 -55q-14 -541 -143 -1062q277 12 547 -44q41 -12 56 -40t9 -57t-32 -48t-68 -15q-240 47 -582 18q-24 -4 -56 -11q-131 -29 -185 13q-31 32 -31 64z" />
    <glyph glyph-name="M" unicode="M" horiz-adv-x="1519" 
d="M324 -115q-10 -41 -62 -53q-116 -26 -211 38q-43 30 -33 71l126 1287q-4 19 6 43t36 39q27 15 60 10t55 -42l481 -809l149 866q-7 23 3 49t37 40q27 15 64 10t58 -60q2 -4 2 -9l541 -1519q20 -38 8 -68t-39 -45q-28 -15 -61 -9t-51 40l-455 1278l-135 -782q9 -26 -1 -54
t-36 -43q-52 -29 -99 10q-19 16 -30 48l-319 536z" />
    <glyph glyph-name="N" unicode="N" horiz-adv-x="1169" 
d="M993 403v107q0 156 -12 584q-4 142 14 286q8 44 35 62q58 40 107 -12q23 -25 20 -68q-18 -142 -15 -290t-1 -296q7 -322 28 -565q6 -69 -10 -139t-53 -94q-69 -45 -169 38q-100 82 -159 153t-76 89l-159 172q-78 90 -156 174q34 -106 74 -348q0 -37 -38 -69t-86 -49
t-94 -14t-65 36q-47 290 -190 694q-7 52 89 115q38 25 80 38q41 13 67 4t70 -53t88 -93q44 -50 81 -95q37 -44 71 -82t77 -89q44 -51 69 -76q25 -26 76 -82t111 -118q59 -62 95 -100t46 -48q-1 23 -10 51t-7 77t2 100z" />
    <glyph glyph-name="O" unicode="O" horiz-adv-x="1202" 
d="M895 1340q139 -41 248 -189q92 -119 96 -254q8 -252 -209.5 -525.5t-481.5 -367.5t-405 -27t-197 244t11.5 394t177 361t209.5 226q35 29 159 92.5t275 72.5q73 5 117 -27zM1075 887q0 82 -54 156t-133 127t-211 -6q-87 -44 -168 -207t-107 -262t-42 -285
q21 -111 87.5 -173t153.5 -21q190 91 332 279.5t142 391.5z" />
    <glyph glyph-name="P" unicode="P" 
d="M141 1079q-45 -30 -46 -36q-1 -7 -15 -23t-44 -23q-57 -12 -86 44q-13 26 -7 63q65 123 281 214t363 83q146 -9 251 -64q210 -101 242 -276q32 -176 -128 -344q-87 -93 -282 -207l-95 -38q77 -144 230 -357q25 -35 -10 -77t-93 -73t-119 -40q-62 -9 -94 22
q-129 181 -215 404l-32 -13q-41 -8 -69 10t-36 46t5 58q12 30 40 38t40 13q-83 281 -81 576zM358 1191q-86 -33 -152 -73zM507 610q131 63 253 152q115 79 156 189q41 109 -74 196q-56 42 -144 70q-114 43 -288 -8q-43 -273 97 -599z" />
    <glyph glyph-name="Q" unicode="Q" horiz-adv-x="1284" 
d="M713 569q37 2 61 -15q51 -36 28 -94q-3 -7 -7 -13q3 -59 12 -115q191 134 287 320q95 186 66 312q-14 66 -72 102t-153 25t-171 -36t-154 -47q-36 -7 -61 7q-56 -66 -95 -148t-51 -152t-8 -271q1 -30 19 -78t61 -84t117 -37q28 0 61 9q-44 211 2 278q19 27 58 37zM704 84
q-167 -69 -342 -76t-275 107q-125 144 -111 419q10 151 55 254q156 357 440 495q172 84 293 28q29 -10 45 -63q67 11 120 4t117 -10t117 -30q159 -76 171 -288q6 -92 -20 -184t-67 -152t-77 -122t-89 -110l-209 -178l-20 -16l12 -32q61 -146 158 -294q10 -34 -1 -62
q-23 -58 -84 -50q-30 4 -56 30q-115 173 -177 330z" />
    <glyph glyph-name="R" unicode="R" horiz-adv-x="1325" 
d="M307 1045q0 -113 9 -193t12 -111q52 6 103 -1q222 122 285 254q24 50 16 96q-16 99 -138 125q-152 32 -270 17q-17 -74 -17 -187zM460 569q-11 -7 -95 -44q22 -109 48 -183q27 -74 57 -161t73 -163q10 -36 -25 -72q-77 -80 -190 -88q-53 -5 -80 21q-37 63 -59 139
q-21 76 -33 121t-34 111t-50 196q-62 280 -64 548q0 43 3 83q-47 -31 -90 1q-24 17 -32 49t15 69q2 2 25 36t51 50q169 97 351 110t277 -11q95 -23 150 -55q122 -71 137 -202q27 -207 -201 -403q-30 -26 -64 -50q102 -59 186 -149q83 -90 169 -217t141 -199
q129 -169 265 -251q35 -25 41 -57t-8 -58t-46 -35q-31 -10 -69 8q-115 74 -191 154t-138 166t-125 177q-207 304 -395 359z" />
    <glyph glyph-name="S" unicode="S" horiz-adv-x="1228" 
d="M520 1188q-63 -80 -63 -198q0 -117 75 -177q42 -17 71 -10q29 6 47 12q18 7 76 21q56 14 120 33t118 19q56 0 111 -28q55 -29 129 -104q46 -46 50 -183t-81 -248q-164 -211 -423 -308q-122 -46 -206 -54t-162 -10q-297 -8 -364 201q-16 51 -11 103t1 105q6 36 29 56
q48 41 99 6q24 -16 34 -53q4 -41 1 -81t9 -84q32 -116 176 -96q233 32 347 106q113 74 120 233q4 115 -43 169t-112 39q-43 -8 -139 -39q-184 -60 -286 -30q-101 30 -130 170q-37 193 118 419q97 138 227 198q65 30 132 30l61 2q57 -1 97 -19q109 -50 158 -176
q15 -41 38 -92q12 -42 -3 -70t-42 -38t-57 1t-51 48q-10 27 -24 73t-39 71t-63 39t-77 -3q-39 -16 -68 -53z" />
    <glyph glyph-name="T" unicode="T" horiz-adv-x="980" 
d="M33 1108q-41 -8 -68.5 10.5t-36 46t5 57t54.5 44.5q519 181 1073 141q70 -19 68.5 -65t-20.5 -68.5t-56 -28.5q-199 14 -390 -1q24 -624 230 -1168q12 -41 -27 -73t-94 -46t-109.5 -6t-74.5 45q-112 305 -152 606t-48 604q-176 -35 -355 -98z" />
    <glyph glyph-name="U" unicode="U" horiz-adv-x="1251" 
d="M152 -33q-48 0 -96 10q-115 24 -140 103q-19 61 13 235q55 303 148 579q138 411 189 417l254 -58q38 -26 17 -167q-21 -140 -53 -215q-145 -333 -181 -658q43 -39 72 -47q28 -8 134 10t316 39t245 37q34 16 46 32q31 45 -72 222q-140 237 -158 543q-5 84 -9 176
q6 37 28 56q49 41 100 5q24 -16 33 -53q8 -253 28 -346q19 -91 45 -151t66 -127q92 -155 108 -276q9 -71 -28 -138q-50 -96 -282 -123q-100 -14 -231 -26t-276 -40q-146 -28 -206 -34t-110 -5z" />
    <glyph glyph-name="V" unicode="V" 
d="M-6 918q-18 39 14 88q33 49 85 87q53 38 107 50t79 -23q44 -66 105 -182q62 -116 133 -222q71 -107 94 -142q23 -36 31 -48q14 46 73 207q59 162 124 287t115 258q23 37 55 45q31 8 57 -4t38 -42t-2 -71q-53 -135 -132 -289t-148 -363q-70 -209 -80 -288q-9 -80 -21 -126
q-30 -115 -107 -128q-54 -7 -106 60l-49 67q-15 23 -31 47l-30 45q-14 20 -65 103q-50 83 -79 123q-160 257 -193 336q-34 78 -67 125z" />
    <glyph glyph-name="W" unicode="W" horiz-adv-x="1454" 
d="M-90 965q-4 37 34 63t89 35q51 10 101 1t73 -40q78 -214 143 -582q10 -56 11 -62q11 42 33 133t48 173t32 110q26 105 97 122q40 3 74 -23q48 -51 68 -118q20 -68 29 -109q9 -40 27 -96t61 -194t71 -191q28 -54 35 -70q0 7 2 21t12 36q2 4 1 -3t-3 -15t-2 -14
q17 77 29 155q50 326 196 672q102 242 254 471q29 26 59 26q61 1 79 -59q8 -29 -4 -64q-247 -380 -346 -732q-53 -188 -70 -286q-15 -97 -27 -162q-27 -154 -91 -218q-63 -64 -138 -15q-76 48 -131 177t-74 195q-20 65 -47 146t-44 158q-19 -72 -31 -124t-18 -70
q-5 -18 -21 -82t-37 -113t-28 -71t-20 -42q-25 -47 -151 -54q-126 -6 -167 46t-84 374q-10 67 -14 85t-9 47t-12 60q-7 30 -13 58t-14 54t-16 62q-9 35 -21 63q-11 29 -25 66zM293 190q0 -4 2 -4q2 6 4 11q-6 -3 -6 -7z" />
    <glyph glyph-name="X" unicode="X" 
d="M307 106.5q-12 -20.5 -13 -52.5t-24.5 -54.5t-52.5 -23.5t-54.5 18.5t-28.5 60.5t9.5 74t31 61.5t44 62.5t76 124t121.5 201q-62 66 -150 156t-219 186q-40 40 11.5 119.5t133 129.5t123.5 19q131 -96 209 -176t122 -126q21 24 42 49q201 226 440 423q35 12 64 4
t44 -28.5t14 -50.5t-25 -58q-256 -209 -466 -462q41 -50 191 -216t273 -273q20 -31 -6.5 -82t-73.5 -98t-101.5 -75.5t-87.5 -12.5q-123 106 -225 220t-199 224q-70 -106 -92 -149t-38 -69t-32 -45t-32.5 -39.5t-28.5 -41z" />
    <glyph glyph-name="Y" unicode="Y" horiz-adv-x="1396" 
d="M970 1378q22 0 23 -2q72 -20 70 -96q-23 -139 7 -257t84 -227.5t119 -219t99 -197.5q70 -177 80.5 -289.5t-45.5 -212.5q-18 -35 -50 -61t-58 -50q-41 -39 -134 -56.5t-257 -37.5q-164 -19 -382.5 -9.5t-431.5 73.5q-95 30 -129.5 80.5t-36.5 79t-5 55t-5 65.5
q-4 74 96 155.5t205 135.5q41 14 98.5 -3t102.5 -49t63.5 -68.5t-17.5 -56.5t-74 -41t-87.5 -61.5t-42.5 -123.5q59 -27 85 -41.5t46.5 -22t185.5 -16.5t398.5 19t286.5 118q72 118 -14 298t-138 271t-90 161q-13 -6 -29 -9q-222 -5 -325 -32t-186 -57t-214 -44.5t-171 98.5
t24 264q42 98 97 195q56 97 163 227q33 27 90 31t108.5 -10.5t78 -41t-6.5 -66.5q-77 -94 -108 -146q-62 -106 -110.5 -216t-29.5 -126q31 -31 218 37q135 40 180 43.5t79 3.5h70q-67 164 -67 344q6 85 14 108q-4 40 23.5 62t49.5 22z" />
    <glyph glyph-name="Z" unicode="Z" horiz-adv-x="1277" 
d="M193 1174q-65 35 -56.5 78.5t31 62t59.5 18.5q121 -23 282 10t393.5 86t389.5 -20q156 -77 34 -202.5t-150.5 -150t-35.5 -31.5t-23.5 -21.5t-96.5 -85.5t-159 -164q-320 -378 -493 -532q37 -6 116.5 -26t163.5 -35q173 -31 409 -14q43 2 67.5 -20.5t27.5 -51t-15.5 -55
t-61.5 -34.5q-341 -28 -564.5 31.5t-319.5 56.5q-2 0 -45 -30t-123 -67q-42 -8 -68 9q-13 0 -29 -2t-48 13.5t-48 123.5q246 226 473 465t328 353t313 292q23 21 78 39q-94 -8 -198 -30t-288.5 -58t-342.5 -8zM-74 8l8 -7q-4 4 -8 7z" />
    <glyph glyph-name="bracketleft" unicode="[" horiz-adv-x="659" 
d="M86 -397v161l6 322q8 209 20.5 414.5t9.5 327.5t-21 304.5t28 236.5q54 64 152 62.5t156.5 -4.5t107.5 13q37 2 61.5 -15.5t36.5 -59.5t-53 -83q-47 -14 -159.5 -2t-163.5 -14q-6 -67 5 -193.5t9 -175.5q-9 -330 -15 -640t-15 -602q94 28 265 11q71 -19 69.5 -64.5
t-21 -68t-56.5 -29.5q-164 15 -265.5 -18t-129 4t-27.5 113zM170 -371h-4l-15 -6q7 2 19 6z" />
    <glyph glyph-name="backslash" unicode="\" horiz-adv-x="815" 
d="M172 1405q25 -80 65 -155t140 -307t454 -984q12 -72 -43 -100q-55 -29 -104 28q-364 775 -461 1000q-96 225 -138 305t-71 168q-2 38 16 62q37 51 94 27q28 -11 48 -44z" />
    <glyph glyph-name="bracketright" unicode="]" horiz-adv-x="632" 
d="M588 -397q0 -130 -54.5 -131.5t-129 23t-238.5 9.5q-37 6 -56.5 29t-21 68.5t69.5 64.5q130 13 245 -6q3 0 20 -5q-11 293 -15 603t-10 499t-2.5 240.5t10.5 128t1 140.5q-47 24 -115.5 18t-114.5 -11t-93 9q-33 20 -44 48t-4 52.5t31.5 42t61.5 15.5q49 -16 107.5 -13
t156.5 4.5t154 -63.5q41 -52 18.5 -303t-7.5 -510.5t24 -468.5l6 -322v-161zM504 -371q12 -4 19 -6l-15 6h-4z" />
    <glyph glyph-name="asciicircum" unicode="^" 
d="M735 1269q9 -43 15 -61q48 -135 106 -218q59 -83 127 -148q20 -31 19 -61t-17 -49t-45 -25t-61 10q-182 178 -270 400q-57 -115 -119 -229t-148 -214q-23 -12 -37 -16t-41 -1q-53 20 -65 55q-25 70 37 102q7 4 14 6q57 76 157 250t121 260q21 85 82 93q32 2 52 -7t38 -38
q12 -30 18 -56t10 -43q-1 4 -1 18t8 -28z" />
    <glyph glyph-name="underscore" unicode="_" 
d="M229 -473q-43 4 -62.5 29.5t-18 54.5t24 52.5t65.5 25.5q221 -2 450.5 7t448.5 -7q70 -19 68.5 -65t-21 -68.5t-56.5 -28.5q-219 16 -448.5 7t-450.5 -7z" />
    <glyph glyph-name="grave" unicode="`" 
d="M415 1434q1 0 17 6q42 15 86 -17q35 -31 54 -81t49 -99t69 -103t71 -100q54 -79 0 -129q-23 -18 -55 -18t-63 31q-41 61 -101 146t-85 133q-25 49 -33 68t-15 28q-42 32 -34 70t37 63q2 2 3 2z" />
    <glyph glyph-name="a" unicode="a" horiz-adv-x="1462" 
d="M102 -39q-14 -41 -44 -54t-58 -5t-45 36q-18 28 -10 68q16 56 44 108q27 52 45 112t38 123q-6 53 25 80q127 393 374 998q55 86 135 29q27 -30 36 -79q9 -47 13 -75t30 -117t57 -155q120 -246 276 -450q128 20 258 38q44 2 68 -20q52 -48 12 -106q-18 -27 -78 -37
t-138 -22l16 -18q206 -226 448 -415q40 -62 2 -110q-16 -19 -45 -25t-62 10q-306 238 -541 529q-88 -14 -260 -43t-432 -64q-25 -20 -48 -29q-52 -169 -76 -214t-33 -67q3 3 0 -7q-5 -13 -7 -19zM103 -32l-3 -7q2 3 3 7zM279 466q32 6 77 10t170 26q125 20 318 51
q-200 277 -271 457q-22 58 -42 119q-68 -151 -106 -255q-39 -105 -69 -179q10 28 10 31q-46 -130 -87 -260z" />
    <glyph glyph-name="b" unicode="b" horiz-adv-x="1396" 
d="M269 636q-1 0 -2 1q-57 26 -44 88q5 25 29 48q-21 221 7 419q-70 -25 -142 -57q-72 -12 -101 44q-29 55 29 103q170 78 279 99q261 51 438 -55q153 -93 122 -250q-13 -65 -73 -130q264 26 402 -58q137 -84 182 -245t-2 -340q-47 -178 -215 -334q-169 -156 -439 -178
t-503 100q-117 61 -193 160q-18 25 -26 58q-7 33 -17 61q-4 36 11 62q33 56 92 37q28 -9 51 -40q39 -109 85 -151q58 -56 212 -98q-131 337 -182 653v3zM608 -44q295 -19 467 142q57 53 107 133q103 169 71 338q-16 84 -90 148q-126 114 -430 53q-146 -26 -304 -93
q3 -18 17 -108q14 -91 62 -247q47 -156 102 -297q13 -41 -2 -69zM410 859q7 4 36 20q167 92 236 168t27 121q-32 35 -117 53q-86 18 -159 12q-35 -169 -23 -374z" />
    <glyph glyph-name="c" unicode="c" horiz-adv-x="1443" 
d="M623 54q-92 -3 -150 -3q-58 -1 -110 15t-109 34q-35 14 -65 41q-29 27 -75 63t-77 112q-31 77 -38 162q-14 174 42 314q103 255 338 415q234 160 528 223q331 80 385 -35q24 -51 4 -105t-56 -109t-73 -107t-45 -99q-14 -41 -44 -54t-58 -5t-45 35q-18 28 -7 83
q11 56 47 110t59 87q24 33 42 65q-241 -13 -490 -127q-250 -114 -360 -301q-140 -236 -101 -422q15 -72 63 -122q80 -84 183 -102q104 -18 228 1q407 71 780 387q35 12 64 4t44 -28t14 -50t-25 -59q-322 -273 -676 -381q-126 -38 -217 -42z" />
    <glyph glyph-name="d" unicode="d" horiz-adv-x="1564" 
d="M4 1448q0 33 18.5 54.5t50 26.5t66.5 -20q72 -55 147.5 -98t175.5 -101t547 -304.5t514.5 -562.5t-50 -427.5t-438 -213t-931.5 103.5q-37 20 -48 51t-0.5 57.5t39 42t67.5 3.5t86 -20.5t76 -31.5q7 -7 -22 4t-15 4q103 -33 212 -47q-186 607 -142 1214
q-219 121 -322 201q-31 31 -31 64zM656 -42q188 -3 360 24q283 45 355.5 184t-91.5 358q-185 247 -680 523q-44 25 -86 48q-29 -523 141 -1077q10 -34 1 -60z" />
    <glyph glyph-name="e" unicode="e" horiz-adv-x="1040" 
d="M903 1444q43 2 67.5 -20.5t27.5 -51.5t-15 -55.5t-61 -34.5q-139 -25 -273.5 -63.5t-208.5 -50.5t-156 -14.5t-96 -27.5q-47 -100 -20 -399q80 23 232.5 58t263.5 75q41 14 70.5 2t41.5 -37.5t4 -57.5t-45 -54q-137 -53 -277 -81t-273 -70q3 -30 6 -217.5t47 -221.5
q15 -11 63.5 8t70.5 28l21 9q242 105 525 213q41 14 70.5 2t41.5 -38t4 -57.5t-45 -54.5q-82 -31 -165.5 -60t-151.5 -59t-215.5 -108t-290.5 -33q-131 40 -136.5 302.5t-16.5 385.5t-12 183t-6 181.5t54 191.5q39 47 78 64t80 24.5t85 10t134 18.5t217 51.5t260 58.5z" />
    <glyph glyph-name="f" unicode="f" horiz-adv-x="976" 
d="M138 845q-49 227 -35 403q-10 3 -19 5q-58 -26 -99 15t-3 108q6 6 14 19q55 44 279 -19.5t659 -36.5q43 2 67.5 -20.5t27.5 -51t-15.5 -55t-61.5 -34.5q-356 -25 -674 34q-6 1 -13 3q-7 -139 33 -329q89 0 164 19t120 29q37 2 61.5 -15.5t36.5 -59t-53 -83.5
q-55 -12 -132.5 -30t-154.5 -22q75 -257 262 -605q10 -35 -1 -62.5t-32.5 -41t-51.5 -9.5t-56 31q-212 385 -302 718q-34 34 -25 78q1 6 4 12z" />
    <glyph glyph-name="g" unicode="g" horiz-adv-x="1191" 
d="M641 449q-41 -8 -69 10t-35 46q-8 27 5 57t54 44q43 24 83 50q203 135 552 239q37 2 61 -15t32 -42q17 -61 -48 -101q-196 -58 -261 -85q102 -93 77 -221t-105 -217q-162 -180 -418 -209q-123 -13 -219 17t-147 74t-95 98q-76 91 -88 207q-4 73 -7 165t55 204
q155 296 516 533q155 108 280 125q51 8 96 -14q44 -22 56 -60q22 -70 -20 -158t-53 -107t-24 -54q-14 -35 -7 -56t-4 -49q-10 -28 -32 -40q-22 -13 -52 -9t-56 30q-57 99 31 256q23 41 41 82q-66 -13 -145 -68q-187 -132 -272 -217q-367 -370 -194 -661q53 -88 145 -118
q187 -61 379 48q89 51 128 115q71 116 24 180q-18 27 -50 28t-67 -38q-20 -11 -32 -14t-36 -20t-79 -35z" />
    <glyph glyph-name="h" unicode="h" horiz-adv-x="1021" 
d="M785 1418q64 0 81 -68q0 -432 33 -713.5t164 -583.5q12 -41 -3.5 -69.5t-42 -39t-57 1t-51.5 48.5q-123 285 -168 598q-61 2 -129 7t-173 5t-202 -27q91 -299 265 -516q25 -35 19.5 -66.5t-27 -50t-54 -18.5t-63.5 31q-176 221 -270.5 494.5t-90.5 558.5q0 72 12 131
t16 111q-5 23 7 61q20 33 48 44t52.5 4t47 -38.5t-8 -195.5t3.5 -363l4 -28q143 39 405 26q61 -3 119 -6q-15 154 -17 515q-13 35 -1 65q2 4 4 22q3 20 26 40t51 20z" />
    <glyph glyph-name="i" unicode="i" horiz-adv-x="450" 
d="M203 1574q0 -18 2 -38t3 -49q0 -29 -18 -51q-39 -47 -96 -21q-27 12 -45 45q-18 136 8 217q40 65 101 48q25 -7 42 -31t15 -62q-4 -14 -8 -27t-4 -31zM221 1149q4 -37 4 -210t29 -323q29 -151 71 -266t109 -244q10 -34 -1 -62q-23 -58 -84 -50q-30 4 -56 31
q-200 370 -221 763q-8 132 -8 232t-4 148t6 96q20 33 48 44t52 4t42 -32q17 -25 15 -61q-6 -33 -2 -70z" />
    <glyph glyph-name="j" unicode="j" horiz-adv-x="1099" 
d="M303 1223q-43 4 -62.5 29.5t-18.5 54t23.5 52t65.5 25.5q180 -16 353.5 1.5t351.5 46.5q43 2 67.5 -20.5t27.5 -51.5t-15.5 -55.5t-61.5 -34.5q-182 -29 -362 -46q22 -98 174 -366t209 -429q56 -161 68.5 -259t-65.5 -165q-78 -68 -405 11q-285 69 -437.5 131t-217 156.5
t62.5 224.5q33 35 70 61.5t72 53.5q71 24 97 -10.5t25 -64t-26 -58.5q-95 -60 -119 -88.5t-28 -50.5q50 -50 225 -110t341 -95.5t232 -24.5q31 81 -104 363q-41 88 -171.5 310t-165.5 401q-102 -1 -206 8z" />
    <glyph glyph-name="k" unicode="k" horiz-adv-x="1134" 
d="M4 1223v61q0 53 2 70l1 -3q0 -2 1 -4q1 29 18 51t45.5 28t56.5 -9.5t39 -60.5q17 -68 3 -244.5t-10 -237.5q4 -62 12 -127q33 2 67.5 34t52 50.5t25.5 26.5q288 297 428 584q23 37 54.5 45t57.5 -4.5t38 -42t-2 -70.5q-87 -174 -187 -306t-189 -232q23 -26 50 -71.5
t51 -78.5t60 -87.5t102 -146.5t170.5 -201.5t239.5 -195.5q35 -25 41 -56.5t-8.5 -57t-45 -36t-69.5 8.5q-256 162 -408.5 375t-196.5 277t-71.5 99.5t-32.5 45.5l-43 -43q-57 -59 -132 -74l-24 -4q64 -304 234 -594q10 -35 -1 -62.5t-32.5 -41t-51.5 -9.5t-56 31
q-250 421 -282 799q-16 189 -11 347q4 158 4 167z" />
    <glyph glyph-name="l" unicode="l" horiz-adv-x="956" 
d="M4 79q0 32 16 52q1 7 39 151t90 418.5t60 561.5q6 37 28.5 56t67.5 20.5t66 -68.5q-8 -303 -57 -570t-113 -520q59 12 127 19q287 14 565 -43q41 -12 56.5 -40t9 -56.5t-32 -48t-68.5 -15.5q-295 58 -588 35q-25 -4 -106 -28.5t-129 13.5q-31 31 -31 63z" />
    <glyph glyph-name="m" unicode="m" horiz-adv-x="1544" 
d="M178 -96q-10 -40 -40 -56t-60 -9t-49 34q-20 27 -11 68l126 1287q-4 21 7 48t39 41t57 7q31 -7 45 -26t17 -33l473 -796l149 866q-7 23 3 49t37 40q27 15 64 10t58 -60q2 -4 2 -9l541 -1519q20 -38 8 -68t-39 -45q-28 -15 -61 -9t-51 40l-455 1278l-135 -782
q9 -26 -1 -54t-36 -43q-52 -29 -99 10q-19 16 -30 48l-453 763z" />
    <glyph glyph-name="n" unicode="n" horiz-adv-x="1032" 
d="M856 403v107q0 156 -12 584q-4 142 14 286q8 44 35 62q59 40 106 -12q23 -25 21 -68q-18 -142 -15 -290t-1 -296q7 -322 28 -565q6 -69 -10 -139t-53 -94q-69 -45 -171 39q-101 84 -159 153q-58 70 -74 88l-159 172q-117 135 -157 175q36 -112 75 -349q0 -38 -18 -60
q-39 -47 -97 -20q-27 12 -45 45q-48 297 -191 694q-6 57 28 85t87 12q58 -23 238 -242q36 -44 70 -82t78 -89t69 -76q25 -26 75 -82t128 -135q77 -79 124 -131q-2 23 -10 51t-6 77t2 100z" />
    <glyph glyph-name="o" unicode="o" horiz-adv-x="1202" 
d="M829 1352q8 -1 15 -1q168 -23 299 -200q92 -119 96 -254q8 -252 -209.5 -525.5t-481.5 -367.5t-405 -27t-197 244t11.5 394t191.5 380t280.5 270.5t251.5 122.5t140 -24q5 -6 8 -12zM1075 873q0 95 -54 170q-101 139 -204.5 146.5t-251.5 -83.5q-37 -6 -51 2t-16 8
q-191 -147 -306.5 -355t-105.5 -354.5t43 -200.5t71 -74q67 -34 207 -6t334 185t264 312t70 250z" />
    <glyph glyph-name="p" unicode="p" 
d="M636 -20q-32 0 -63 30q-125 175 -212 363q-58 -19 -109 -31t-79 6t-36 46t5 58q14 30 60 44t96 30q-4 12 -8 23q-102 292 -96 568q-96 -58 -99 -76q-1 -5 -15 -21t-44 -23q-57 -12 -86 44q-13 26 -7 63q65 123 285 216q5 2 11 4q29 27 66 25q167 59 255 53
q174 -10 278 -65q210 -101 242 -276q32 -176 -128 -344q-87 -93 -282 -207q-78 -45 -158 -80q70 -151 186 -315q25 -35 20 -67t-27 -50q-23 -18 -55 -18zM449 583q156 67 311 179q115 79 156 189q41 109 -74 196q-56 42 -137 69q-158 51 -336 -16q-36 -297 80 -617z" />
    <glyph glyph-name="q" unicode="q" horiz-adv-x="1284" 
d="M713 569q37 2 61 -15q51 -36 28 -94q-3 -7 -7 -13q3 -59 12 -115q191 134 287 320q95 186 66 312q-14 66 -72 102t-153 25t-171 -36t-154 -47q-40 -8 -68 10q-59 39 -31 103q13 30 54 44q7 2 15 5q-85 -12 -221 -169t-191 -334q-56 -177 -13 -336q1 1 7 -5t16 -40t23 -53
q12 -19 53 -43t143 -20t258 76q-31 145 -25 203q8 57 26 83t57 37zM704 84q-167 -69 -342 -76t-275 107q-125 144 -111 419q10 151 55 254q100 227 292 409q118 113 236 133q66 11 131 -19q15 -5 45 -34q30 -28 39 -39q84 23 147 15q61 -8 125 -11t117 -30q159 -76 171 -288
q6 -92 -20 -184t-67 -152t-77 -122t-89 -110l-209 -178l-20 -16l12 -32q61 -146 158 -294q10 -34 -1 -62q-23 -58 -84 -50q-30 4 -56 30q-115 173 -177 330zM165 299l1 -4q4 -8 -1 4z" />
    <glyph glyph-name="r" unicode="r" horiz-adv-x="1325" 
d="M66 1133q-16 -15 -37 -41t-53 -28q-32 -3 -56 14t-31 49q-8 32 15 69q2 2 25 36t51 50q169 97 351 110t277 -11q95 -23 150 -55q122 -71 137 -202q27 -207 -201 -403q-30 -26 -64 -50q102 -59 186 -149q83 -90 169 -217t141 -199q129 -169 265 -251q35 -25 41 -57t-8 -58
t-46 -35q-31 -10 -69 8q-115 74 -191 154t-138 166t-125 177q-214 314 -395 359q-15 -9 -38 -19q-22 -9 -67 -30t-69 -28q41 -182 95 -289q53 -107 96 -183q10 -34 -1 -62q-23 -58 -84 -50q-30 4 -56 31q-111 190 -148 301q-126 382 -129 772q0 65 7 121zM244 722
q77 33 187 18q222 122 285 254q24 50 16 96q-16 99 -138 125q-178 38 -329 9q-11 -2 -21 -5q2 -13 2 -27q-46 -151 -6 -441q2 -14 4 -29z" />
    <glyph glyph-name="s" unicode="s" horiz-adv-x="1228" 
d="M590 1405l78 1q77 1 142.5 -55t88 -118t45.5 -113q12 -41 -3 -69.5t-42 -39t-57.5 1t-50.5 48.5q-10 27 -41 127t-162 52.5t-230 -170.5t-97.5 -202.5t42.5 -111.5q45 -18 92 -9t74 16t83 21t153.5 42t192.5 38t184 -10t163 -96q58 -55 45 -190t-142 -272t-309 -230
t-341 -108q-161 -14 -249.5 6t-145.5 63t-79 111t-17 119.5t1 104.5q6 37 28.5 56.5t68.5 21t65 -68.5q4 -41 1 -81t9 -84q21 -77 168.5 -96.5t350.5 77t315 199t116 214.5q2 57 -35.5 79.5t-90 26t-107.5 -7t-93 -17.5t-101.5 -26.5t-302 -78t-287.5 181.5
q-24 128 40 278.5t184.5 259.5t252.5 109z" />
    <glyph glyph-name="t" unicode="t" horiz-adv-x="980" 
d="M33 1108q-41 -8 -68.5 10.5t-36 46t5 57t54.5 44.5q519 181 1073 141q70 -19 68.5 -65t-20.5 -68.5t-56 -28.5q-229 16 -446 -6q9 -290 53 -575t153 -576q12 -41 -3 -69.5t-42 -39t-57.5 1t-51.5 48.5q-113 307 -159 600t-54 588q-205 -35 -413 -109z" />
    <glyph glyph-name="u" unicode="u" horiz-adv-x="1251" 
d="M303 1136v-1v1zM-33 13q-74 46 -57 168q17 123 87 298q70 176 117 270q46 94 88 190q42 97 56 141t18 54t10 32q-15 52 24 85q19 15 49 17t61 -19q65 -85 -17 -257q-20 -44 -36 -82t-45 -100q-252 -540 -246 -669q51 -12 128 -12t205 28q129 28 378 54t283 41
q34 16 46 32q31 45 -72 222q-140 237 -158 543q-5 84 -9 176q6 37 28 56q49 41 100 5q24 -16 33 -53q8 -253 28 -346q19 -91 45 -151t66 -127q92 -155 108 -276q9 -71 -28 -138q-50 -96 -282 -123q-100 -14 -231 -26t-276 -40q-204 -39 -316 -39q-111 0 -185 46z" />
    <glyph glyph-name="v" unicode="v" 
d="M-6 918q-18 40 -8 70t36 44t58 8q52 -10 109 -138q58 -129 138 -256q80 -128 133 -212t113 -179q23 156 158 523q43 117 108 242t115 258q23 37 55 45q31 8 57 -4t38 -42t-2 -71q-53 -135 -132 -289t-148 -363q-70 -209 -80 -288q-9 -80 -21 -126q-30 -115 -107 -128
q-54 -7 -106 60l-49 67q-15 23 -31 47l-30 45q-14 20 -65 103q-50 83 -79 123q-160 257 -193 336q-34 78 -67 125z" />
    <glyph glyph-name="w" unicode="w" horiz-adv-x="1454" 
d="M53 965q-5 37 11 63t40 35q58 24 103 -39q78 -214 143 -582q10 -56 11 -62q11 42 33 133t48 173t32 110q26 105 97 122q40 3 74 -23q48 -51 68 -118q20 -68 29 -109q9 -40 27 -96t61 -194t71 -191q28 -54 35 -70q0 7 2 21t12 36q2 4 1 -3t-3 -15t-2 -14q17 77 29 155
q50 326 196 672q102 242 254 471q29 26 59 26q61 1 79 -59q8 -29 -4 -64q-247 -380 -346 -732q-53 -188 -70 -286q-15 -97 -27 -162q-27 -154 -91 -218q-63 -64 -138 -15q-76 48 -131 177t-74 195q-20 65 -47 146t-44 158q-19 -72 -31 -124t-18 -70q-5 -18 -21 -82t-37 -113
t-28 -71t-20 -42q-29 -53 -81 -55t-87 41t-58 178q-22 136 -32 202t-14 85q-4 18 -9 47t-13 60q-7 31 -16 73t-24 90q-15 49 -25 76t-24 64zM293 190q0 -4 2 -4q2 6 4 11q-6 -3 -6 -7z" />
    <glyph glyph-name="x" unicode="x" 
d="M307 106.5q-12 -20.5 -13 -52.5t-24.5 -54.5t-52.5 -23.5t-54.5 18.5t-28.5 60.5t9.5 74t31 61.5t44 62.5t104.5 174.5t203 308.5q-45 48 -125 129t-211 177q-31 31 -30.5 64t19 54.5t50 26.5t66.5 -20q131 -97 210 -177t122 -126q216 259 501 494q35 12 64 4t44 -28.5
t14 -50.5t-25 -58q-268 -218 -484 -485q20 -25 179 -202.5t282 -283.5q41 -64 13.5 -96.5t-56.5 -38.5t-61 10q-171 147 -457 481q-150 -205 -187.5 -278.5t-53.5 -99.5t-32 -45t-32.5 -39.5t-28.5 -41z" />
    <glyph glyph-name="y" unicode="y" 
d="M970 1378q22 0 23 -2q72 -20 70 -96q-23 -139 7 -257t84 -227.5t119 -219t99 -197.5q70 -177 80.5 -289.5t-45.5 -212.5q-18 -35 -50 -61t-58 -50q-41 -39 -134 -56.5t-257 -37.5q-164 -19 -382.5 -9.5t-431.5 73.5q-95 30 -129.5 80.5t-36.5 79t-5 55t-5 65.5
q-4 74 96 155.5t205 135.5q41 14 70.5 2t42 -37.5t4.5 -57.5t-44 -52t-74 -41t-87.5 -61t-42.5 -123q118 -84 362.5 -105.5t502.5 9t311 120.5q72 118 -14 298t-138 271t-90 161q-13 -6 -29 -9q-222 -5 -325 -32t-186 -57t-214 -44.5t-171 98.5t24 264q42 98 97 195
q56 97 163 227q33 27 65.5 25t53 -22.5t22.5 -53t-30 -72.5q-78 -95 -109 -148q-64 -109 -111.5 -217.5t-27.5 -123.5q26 -26 116 3.5t164 53.5q158 50 427 64q-68 163 -68 344q6 85 14 108q-4 40 23.5 62t49.5 22z" />
    <glyph glyph-name="z" unicode="z" 
d="M193 1174q-65 35 -56.5 78.5t31 62t59.5 18.5q121 -23 282 10t393.5 86t389.5 -20q129 -63 31.5 -162t-150.5 -135.5t-60 -43.5t-23.5 -21.5t-34 -30t-32.5 -29.5t-65 -59q-88 -79 -275 -314q-186 -235 -336 -388q58 -10 137.5 -30t163.5 -35q173 -31 409 -14
q43 2 67.5 -20.5t27.5 -51t-15.5 -55t-61.5 -34.5q-341 -28 -564.5 31.5t-319.5 56.5q-7 0 -13 -1q-79 -61 -155 -96q-52 -9 -90 25q-50 60 -6 120t94 78t85 26q175 143 355 371t281 342t313 292q27 24 55 46h-11q-120 -4 -249 -31t-313.5 -64t-343.5 -8zM-57 -8l-9 9z" />
    <glyph glyph-name="braceleft" unicode="{" horiz-adv-x="690" 
d="M575 1468q37 2 62 -15q52 -35 28 -94q-11 -28 -44 -48q-61 -19 -115 -33t-103 -61q-63 -72 -34 -228q8 -72 23 -158q51 -294 -43 -422q0 -1 1 -1q66 -87 83 -270q7 -78 10 -154q9 -240 76 -329q32 -47 88 -55q19 -4 50 -12t46 -36t9 -56q-6 -29 -31 -48q-26 -19 -69 -15
q-28 8 -54 13t-66 16q-78 22 -137 153q-43 94 -58 209q-16 115 -22 174q-5 58 -8 86t-5 57q-9 129 -37 160q-4 5 -7 9q-75 -30 -118 -10q-43 19 -59 56t-8 81t37 72q60 58 151 9q23 52 24 102q3 146 -23 274q-25 128 -22 213t44 160t151 144q41 25 88 34t92 23z" />
    <glyph glyph-name="bar" unicode="|" horiz-adv-x="520" 
d="M168 1360q6 37 28.5 56.5t67.5 21t66 -69.5q2 -215 11.5 -734t-15.5 -976q-12 -35 -38 -50.5t-51.5 -12t-47 24t-25.5 56.5q23 422 14.5 842t-10.5 842z" />
    <glyph glyph-name="braceright" unicode="}" horiz-adv-x="724" 
d="M158 1470q45 -14 92 -23t88 -34q112 -71 152 -145q71 -130 28 -338q-30 -157 -30 -308q1 -50 24 -102q92 49 152 -9q28 -28 36 -72t-8 -81t-57 -55t-111 6q-5 2 -9 3q-35 -35 -44 -169q-2 -29 -5 -57t-8 -86q-41 -484 -229 -539q-29 -8 -55 -13t-53 -13q-43 -4 -69 15
t-32 48t10 57q16 27 46 35t50 12t44 15q44 21 69 86q42 109 51 294q8 186 30 274t63 139q0 1 1 1q-94 128 -43 423q35 201 30 272t-41 113q-48 47 -102 61t-115 33q-33 20 -44 48q-23 59 27 94q25 17 62 15z" />
    <glyph glyph-name="asciitilde" unicode="~" 
d="M1072 326q-40 -2 -83 -2t-123 24t-151 73q-71 48 -135 81t-131 43q-68 10 -144 -29q-55 -36 -74 -65q-29 -33 -61 -36t-54 14q-24 17 -32 49t14 69q90 136 274 157q185 21 377 -107q139 -92 228 -112q107 -19 219 102q12 13 23 27q20 44 55 53q34 9 60 -3t38 -42t-2 -71
q-33 -72 -130 -147t-168 -78zM1227 626l2 3z" />
    <glyph glyph-name="Ydieresis" unicode="&#x178;" 
 />
    <glyph glyph-name="Euro" unicode="&#x20ac;" horiz-adv-x="1292" 
d="M167 453q-21 0 -37 1q-19 -5 -44 -3q-12 6 -27 6q-55 27 -55 80.5t64 78.5q56 15 115 13q0 4 18 56q-35 3 -71 7q-51 -12 -87 25t0 104q58 58 215 28q54 131 127.5 227t117.5 150t102.5 95t171 85.5t251.5 20.5t193 -159q12 -41 -3.5 -70t-42 -39t-57.5 1t-51 48
q-14 39 -60 54.5t-182 -7t-246.5 -189t-135.5 -229.5q93 1 206 11t250 22q43 2 67.5 -20.5t27.5 -51t-15 -55t-61 -34.5q-398 -32 -542 -32l-7 -21q-4 -12 -9 -26q297 19 451 34q43 2 67.5 -20.5t27.5 -51.5t-15.5 -55.5t-48.5 -31.5t-88 -11.5t-134 -13t-154 -12.5
t-143 -10q-21 -203 81 -291t261.5 -51.5t247 71.5t137.5 53t79.5 5.5t42 -38t4 -57t-45.5 -54.5q-217 -86 -392 -128t-336 11.5t-224 264.5q-18 58 -14 112t3 97z" />
    </font>
</defs>
</svg>
