<?xml version="1.0" standalone="no"?>
<!DOCTYPE svg PUBLIC "-//W3C//DTD SVG 1.1//EN" "http://www.w3.org/Graphics/SVG/1.1/DTD/svg11.dtd" >
<svg xmlns="http://www.w3.org/2000/svg">
<metadata>
Created by FontPrep 20130207 at Mon Nov  2 20:44:59 2015
 By Ben Racher
Typeface (c) (your company). 2011. All Rights Reserved
</metadata>
<defs>
<font id="b9a68b67f1a168b5ed56d55de1e4ebb5" horiz-adv-x='1024' >
  <font-face 
    font-family="STYLEWARS2011"
    font-weight="400"
    font-stretch="normal"
    units-per-em="2048"
    panose-1="2 0 7 0 0 0 0 0 0 0"
    ascent="1638"
    descent="-410"
    x-height="1061"
    cap-height="1575"
    bbox="-234 -418 2262.6 1737.04"
    underline-thickness="150"
    underline-position="-142"
    unicode-range="U+0020-F002"
  />
<missing-glyph horiz-adv-x="1024" 
d="M497 385q111 0 112 -88q0 -76 -111 -105q-99 22 -99 98q16 94 93 95h5zM325 616v32q-1 116 203 206q256 134 314 195l-1 44q-1 167 -299 268q-25 11 -72 11l-66 -1q-5 0 -5 5q-137 0 -236 -188q-6 -9 -6 -27v-56q1 -66 100 -136q42 -22 50 -39q0 -25 -61 -38l-16 -1
q-121 0 -200 180q-11 52 -11 83v6q-1 188 235 344q79 32 160 32l66 1q197 1 410 -174q134 -127 134 -289t-209 -268q-243 -138 -302 -178q14 0 22 -39q0 -55 -105 -77q-105 17 -105 104z" />
    <glyph glyph-name=".notdef" horiz-adv-x="1024" 
d="M497 385q111 0 112 -88q0 -76 -111 -105q-99 22 -99 98q16 94 93 95h5zM325 616v32q-1 116 203 206q256 134 314 195l-1 44q-1 167 -299 268q-25 11 -72 11l-66 -1q-5 0 -5 5q-137 0 -236 -188q-6 -9 -6 -27v-56q1 -66 100 -136q42 -22 50 -39q0 -25 -61 -38l-16 -1
q-121 0 -200 180q-11 52 -11 83v6q-1 188 235 344q79 32 160 32l66 1q197 1 410 -174q134 -127 134 -289t-209 -268q-243 -138 -302 -178q14 0 22 -39q0 -55 -105 -77q-105 17 -105 104z" />
    <glyph glyph-name=".null" horiz-adv-x="0" 
 />
    <glyph glyph-name="nonmarkingreturn" horiz-adv-x="508" 
 />
    <glyph glyph-name="space" unicode=" " horiz-adv-x="728" 
 />
    <glyph glyph-name="space" unicode="&#xa0;" horiz-adv-x="728" 
 />
    <glyph glyph-name="exclam" unicode="!" horiz-adv-x="559" 
d="M194 239l33 -2q81 -4 111 -159q-28 -138 -138 -132t-135 113l1 27q42 157 128 153zM317 1617q66 -19 115 -194q18 -514 15 -557l-26 -228q-30 -150 -124 -170q-131 57 -71 324q10 318 -11 549q-46 247 62 279z" />
    <glyph glyph-name="quotedbl" unicode="&#x22;" horiz-adv-x="905" 
d="M691 1710q105 0 121 -353l-20 -105q16 -238 -25 -488l-83 -105h-31q-7 0 -26 35v15q17 387 0 544l2 115q-35 138 -16 251q11 92 63 91h15zM174 1654q109 0 124 -527v-36q-3 -281 -101 -326h-15q-46 28 -46 127l2 182q2 215 -32 463q18 118 68 117z" />
    <glyph glyph-name="numbersign" unicode="#" horiz-adv-x="1528" 
d="M352 761q53 -157 113 -288q247 51 518 85v6q-62 205 -101 298zM797 1419q70 0 208 -360q55 11 198 22q157 -15 157 -45v-22q0 -17 -62 -23q0 -21 -116 -51t-115 -39q107 -321 113 -326q304 -13 304 -51v-22q-4 -22 -101 -51q-38 -17 -147 -39v-6q57 -150 73 -248
q-14 -67 -39 -73q-126 0 -219 298h-6q-282 -28 -512 -73q67 -133 67 -163q-9 -51 -45 -51q-70 0 -163 192q-44 -12 -147 -17q-129 0 -129 84q0 66 203 85q-79 168 -113 298l-67 -6h-62q-113 0 -113 79q0 73 163 73q9 6 34 6q-62 242 -62 400q0 64 56 73h12q61 0 73 -141
l67 -304q315 68 518 107q-95 273 -95 321v28q22 45 67 45z" />
    <glyph glyph-name="dollar" unicode="$" horiz-adv-x="1298" 
d="M1079 654v14q0 115 -353 169q29 -323 64 -556h7q125 72 253 275q29 72 29 98zM318 1154q0 -42 246 -105v331q-7 21 -42 21q-69 0 -204 -204v-43zM628 1711h14q37 0 42 -197q20 0 155 -92h7q0 268 49 268h36q56 0 56 -430q14 0 14 -106q-30 -63 -83 -63t-142 162
q-77 63 -85 63h-7q21 -195 21 -288v-14q550 -67 550 -360q0 -231 -360 -528q-11 0 -91 -49l49 -317v-15q-14 -77 -70 -77h-14q-89 0 -113 204q0 162 -35 162q-148 0 -423 191q-155 163 -155 359q0 237 225 373q36 -10 36 -49q-85 -218 -85 -324q0 -228 310 -345
q27 -22 56 -22h43q-36 263 -50 599q0 71 -77 71q-352 83 -352 275v28q0 162 267 359q63 28 113 28l49 -7q27 141 50 141z" />
    <glyph glyph-name="percent" unicode="%" horiz-adv-x="1393" 
d="M1191 513v25q0 91 -133 108q-191 -152 -240 -304q-38 -57 -38 -114q20 -13 38 -13q373 79 373 298zM1109 811q171 0 253 -222v-101q0 -165 -209 -323q-217 -108 -335 -108q-190 23 -190 146v50q0 147 209 361l-7 32v6q65 159 279 159zM256 709q98 0 226 121q23 21 32 88
q-8 89 -64 89h-19q-195 -63 -266 -190q-19 -27 -19 -51q12 -57 110 -57zM1210 1165q0 -25 -202 -221q-475 -568 -475 -615q-235 -407 -235 -468q-48 -165 -107 -165t-70 133q0 239 418 836h-6q-144 -108 -273 -108q-172 0 -240 127q-13 25 -13 70v19q0 234 329 380
q42 19 89 19h25q150 0 203 -146q19 -41 19 -101v-7q0 -39 -19 -120q365 408 507 418q50 0 50 -51z" />
    <glyph glyph-name="ampersand" unicode="&#x26;" horiz-adv-x="1651" 
d="M182 669v-52q92 -256 475 -380v8q-131 219 -315 672q-160 -157 -160 -248zM355 1488q0 -72 100 -281q103 62 115 111q35 128 -215 206v-36zM363 1650q101 0 346 -162q69 -89 69 -170v-8q0 -151 -230 -295v-15q203 -502 396 -787q377 140 383 410v37q-49 199 -218 229
l-92 15l-15 -7l-16 7q-121 0 -277 -103h-38q-31 11 -31 52q0 92 277 199q77 15 154 15h8q332 7 400 -252q30 -100 30 -184v-45q0 -309 -462 -514q-24 0 -24 -15q0 -29 263 -312l8 -45v-29q0 -44 -47 -74h-161q-175 158 -308 364q-30 88 -108 88q-375 103 -522 256t-147 304
v66q0 214 285 414q-69 202 -69 355v21q17 185 146 185z" />
    <glyph glyph-name="quotesingle" unicode="'" horiz-adv-x="296" 
d="M153 1675q164 -80 137 -323l-5 -19q-25 -91 -133 -153l-8 2q-28 7 -36 82q-22 94 -28 295q-32 67 -25 94q10 38 98 22z" />
    <glyph glyph-name="parenleft" unicode="(" horiz-adv-x="758" 
d="M723 1667q0 -27 -160 -251q-210 -401 -210 -680t101 -562q104 -223 276 -463q0 -18 8 -31q-15 -48 -58 -48q-226 67 -334 260q-211 343 -211 769v63q0 345 276 747q181 212 298 212q14 -2 14 -16z" />
    <glyph glyph-name="parenright" unicode=")" horiz-adv-x="694" 
d="M-50 1676q67 0 246 -159q411 -331 411 -910q0 -223 -123 -493q-275 -409 -384 -409q-25 -30 -82 -30q-34 13 -34 47t199 325q162 276 191 469q28 89 28 159v15q0 373 -425 880q-41 60 -41 91q14 0 14 15z" />
    <glyph glyph-name="asterisk" unicode="*" horiz-adv-x="920" 
d="M424 1673q50 0 76 -184h5q128 106 204 113q1 5 13 4t12 -9v-6q-27 -26 -61 -96q-136 -139 -137 -144t142 -147q0 -13 15 -36v-5q0 -15 -61 -20l-56 15v-25q0 -13 -15 -62v-25h-15q0 32 -41 61q-72 120 -72 148h-10q-76 -112 -111 -112t-47 51v20q0 24 67 128
q-133 106 -133 173q0 27 36 51h25q24 0 117 -87q-10 49 -10 118q7 76 57 76z" />
    <glyph glyph-name="plus" unicode="+" horiz-adv-x="1167" 
d="M742 263h-5l5 -11v-17q-1 -45 -42 -45q-16 0 -39 56q-38 1 -104 271q-20 118 -29 153q-254 -65 -390 -64q-96 1 -95 74v11q0 73 203 88q241 60 268 71l-31 383q0 43 60 61q92 0 110 -215l14 -191q294 82 354 81q92 -1 106 -68q-1 -82 -321 -155q0 -4 -121 -38
q57 -374 57 -445z" />
    <glyph glyph-name="comma" unicode="," horiz-adv-x="495" 
d="M278 404q39 0 94 -190q15 -119 15 -129q0 -149 -129 -235q-40 -5 -55 -20h-5q-10 0 -10 9t20 21l-5 10v10q0 17 45 180v5q-5 74 -15 139q-68 -15 -80 -15q-75 9 -75 70q0 41 75 75q30 47 110 70h15z" />
    <glyph glyph-name="hyphen" unicode="-" horiz-adv-x="1379" 
d="M374 804q799 -69 795 -117q78 -7 77 -28l-2 -20q-1 -11 -33 -19q-13 9 -31 10q-157 -97 -597 -59l-290 25q-28 2 -71 -1q-115 37 -108 113q10 117 260 96z" />
    <glyph glyph-name="hyphen" unicode="&#xad;" horiz-adv-x="1379" 
d="M374 804q799 -69 795 -117q78 -7 77 -28l-2 -20q-1 -11 -33 -19q-13 9 -31 10q-157 -97 -597 -59l-290 25q-28 2 -71 -1q-115 37 -108 113q10 117 260 96z" />
    <glyph glyph-name="period" unicode="." horiz-adv-x="557" 
d="M345 347l89 -46q-10 -71 -15 -85t-69 -80l-95 -12q-25 -9 -41 -6t-63 25l-29 42q-29 75 -24 87t26 22l85 50q89 27 105 24t31 -21z" />
    <glyph glyph-name="slash" unicode="/" horiz-adv-x="672" 
d="M749 1556h22q25 -13 38 -40v-28q-11 -92 -205 -475q-80 -203 -410 -843q-50 -82 -102 -113h-6q-16 0 -16 62v6q0 46 113 402q269 541 270 565q96 157 248 441q29 23 48 23z" />
    <glyph glyph-name="zero" unicode="0" horiz-adv-x="1301" 
d="M245 746q0 -155 67 -273q88 -237 255 -237h103q284 0 377 425q12 62 24 194q0 170 -97 401q-71 135 -201 206q-108 49 -151 49h-43q-71 -10 -236 -213q-25 -41 -85 -400q-13 -91 -13 -152zM585 1693h61q190 -15 431 -237q188 -269 188 -583q0 -365 -225 -673
q-179 -158 -376 -158h-67q-268 0 -376 194q-78 92 -176 364q-18 137 -18 201q0 227 115 534q269 358 443 358z" />
    <glyph glyph-name="one" unicode="1" horiz-adv-x="827" 
d="M635 1704q73 0 91 -103q0 -37 -7 -46q13 -233 19 -626q-12 -177 -12 -213q38 -429 45 -614l-7 -38q7 -13 7 -20q-18 -129 -97 -129h-7q-122 0 -122 258q-39 473 -39 562t13 220q0 7 -7 19q7 58 7 92t-7 154q7 67 7 109l-7 39q-291 -245 -335 -245h-13q-52 0 -52 51v13
q0 56 362 368q100 149 161 149z" />
    <glyph glyph-name="two" unicode="2" horiz-adv-x="1570" 
d="M1344 1429q0 -174 -399 -562q-105 -94 -436 -437h12q75 0 280 6q156 0 561 -165q36 81 36 165q26 40 72 40q79 0 107 -120v-22q-27 -250 -167 -250h-72q-18 0 -405 142q-78 23 -149 23h-179l-30 -6v6l-12 -6h-96q-132 0 -310 -131l-36 -5h-17q-66 0 -84 90q0 89 298 330
q133 109 364 363q471 426 471 556q-8 91 -65 91q-303 0 -424 -154q0 -16 90 -51q47 -45 47 -96q-33 -119 -125 -119h-30q-92 0 -155 215q0 254 454 363l149 12q169 0 232 -176q18 -69 18 -102z" />
    <glyph glyph-name="three" unicode="3" horiz-adv-x="1393" 
d="M1091 1617q0 -68 -147 -163q-173 -166 -175 -175q66 5 96 5h51q265 0 406 -254q57 -137 57 -243v-28q0 -268 -277 -514q-81 -88 -254 -136q-60 -17 -74 -17h-333q-86 0 -322 237q-119 154 -119 249q0 145 209 294q59 36 204 51q116 0 192 -136q0 -32 5 -39
q-15 -113 -107 -113q-54 0 -102 90q-132 0 -203 -147q62 -160 226 -243q79 -36 124 -40q300 0 300 40q195 79 248 198q85 114 85 215v50q0 148 -124 249q-81 40 -113 40h-108q-127 0 -361 -51h-6q-76 0 -96 85v17q0 66 198 209l130 124h-6q-41 0 -565 -170h-28
q-57 12 -57 57v11q0 63 260 147q179 92 690 187h11q85 -18 85 -86z" />
    <glyph glyph-name="four" unicode="4" horiz-adv-x="1245" 
d="M1087 1686h5q94 0 94 -181v-47q0 -284 -94 -663q188 -44 188 -123v-5q-12 -88 -88 -88h-6l-123 23v-6q-18 -475 -76 -475q0 -15 -47 -23h-18q-93 18 -93 88q23 231 23 457q-126 35 -785 141q-53 37 -53 88t229 392q76 176 105 276q27 23 53 23q53 -20 53 -93
q0 -190 -211 -528h5q95 0 645 -105q76 262 141 820q30 29 53 29z" />
    <glyph glyph-name="five" unicode="5" horiz-adv-x="1344" 
d="M137 1681h25q225 -64 354 -187q536 -242 702 -329q32 -33 32 -56v-19q0 -51 -75 -68q-79 0 -678 261q-88 45 -193 124v-6q37 -287 63 -366h6q86 24 192 24h194q361 0 534 -367q31 -103 31 -236q0 -288 -242 -391q-301 -100 -436 -100q-328 0 -453 367q-6 41 -6 81v18
q0 222 154 274h20q87 -13 87 -87q-57 -145 -57 -181v-43q0 -72 125 -192q78 -32 144 -32t366 87q93 56 93 174v81q0 232 -298 330q-64 6 -100 6h-93q-162 0 -317 -50h-25q-110 0 -149 335q-50 373 -81 436v19q13 93 81 93z" />
    <glyph glyph-name="six" unicode="6" horiz-adv-x="1280" 
d="M227 710v-29q0 -235 81 -291q125 -116 291 -116h24q224 0 343 174q17 74 17 140v23q0 296 -168 338q-39 5 -76 5h-76q-154 0 -401 -139q-35 -28 -35 -105zM937 1612h17q129 0 152 -81q0 -22 -210 -47q-360 -102 -535 -349l-35 -58v-6h6q139 81 291 81h40q364 0 495 -302
q29 -97 29 -210v-52q0 -327 -314 -419q-97 -35 -181 -35h-75q-344 0 -570 303q-47 130 -47 273v35q0 272 204 535q327 332 733 332z" />
    <glyph glyph-name="seven" unicode="7" horiz-adv-x="1485" 
d="M1465 1539q0 -49 -196 -333q-329 -577 -568 -1090q-39 -52 -104 -52q-78 0 -98 104v27q92 155 377 646q256 570 256 581h-6q-432 28 -855 -59q45 -106 45 -137q0 -85 -72 -85t-163 222q-52 54 -52 85v26q0 91 183 91q345 52 1162 85q91 -33 91 -111z" />
    <glyph glyph-name="eight" unicode="8" horiz-adv-x="1245" 
d="M177 472v-6q28 -158 305 -252h39q277 0 477 235q62 100 62 167q0 160 -244 272q-20 6 -62 6h-5q-368 0 -488 -234q-84 -73 -84 -188zM454 1204v-6q15 -80 67 -80h51q55 0 134 -7q141 40 176 137q-34 232 -166 232q-19 6 -56 6q-154 0 -190 -183q-16 -60 -16 -99z
M639 1712h45q255 0 331 -341l12 -105q-3 -108 -51 -216h6q258 -136 258 -415v-25q0 -357 -404 -526q-188 -56 -287 -56h-107q-421 66 -421 421q0 302 320 570l6 12q-45 62 -45 173q45 341 79 341q98 167 258 167z" />
    <glyph glyph-name="nine" unicode="9" horiz-adv-x="1294" 
d="M531 752q174 0 412 239q12 38 12 53v84q0 97 -71 197q-94 107 -215 107h-18q-6 0 -6 6q-171 0 -394 -334q-12 -58 -12 -113q13 -81 95 -162q112 -77 197 -77zM1266 877q0 -77 6 -119q0 -445 -532 -609q-179 -36 -250 -36q-295 0 -442 275q-48 131 -48 203q14 65 36 65h24
q56 0 119 -161q114 -179 317 -179q108 0 328 84q233 118 233 352v60q-286 -257 -532 -257q-206 0 -382 209q-65 120 -65 209v65q0 151 137 305q112 191 269 257q44 29 161 41q304 0 459 -268q162 -340 162 -496z" />
    <glyph glyph-name="colon" unicode=":" horiz-adv-x="446" 
d="M366 471h22q125 -40 125 -118v-37q0 -98 -147 -125q-126 22 -126 103v22q0 155 126 155zM345 945q97 0 116 -154q-18 -148 -110 -148q-111 0 -111 184q0 94 99 118h6z" />
    <glyph glyph-name="semicolon" unicode=";" horiz-adv-x="565" 
d="M310 471q184 0 208 -252v-64q-19 -230 -181 -230q-22 -14 -41 -14h-42q-69 12 -69 57q145 55 145 173q-16 100 -48 100q-125 0 -125 93q60 137 153 137zM282 994h41q132 -28 132 -122v-21q0 -110 -145 -129q-102 0 -139 122v36q17 114 111 114z" />
    <glyph glyph-name="semicolon" unicode="&#x37e;" horiz-adv-x="565" 
d="M310 471q184 0 208 -252v-64q-19 -230 -181 -230q-22 -14 -41 -14h-42q-69 12 -69 57q145 55 145 173q-16 100 -48 100q-125 0 -125 93q60 137 153 137zM282 994h41q132 -28 132 -122v-21q0 -110 -145 -129q-102 0 -139 122v36q17 114 111 114z" />
    <glyph glyph-name="less" unicode="&#x3c;" horiz-adv-x="919" 
d="M806 234q6 0 6 -6v-19q0 -19 -79 -19q-129 0 -421 319q-242 193 -242 279t205 272q194 187 463 369q74 63 110 63q22 -8 32 -31v-32q-162 -215 -258 -275q-138 -112 -352 -357q128 -104 352 -338q184 -170 184 -225z" />
    <glyph glyph-name="equal" unicode="=" horiz-adv-x="1209" 
d="M1194 483v-13q0 -7 -15 -14h-10q-12 0 -21 5q-79 -37 -257 -37h-51q-264 0 -781 73q-51 27 -51 59q0 47 72 55h133l499 -41q431 -34 431 -68q51 -5 51 -19zM963 926h5q160 -9 160 -50v-9q0 -20 -134 -55q-295 -59 -673 -59q-13 0 -41 -5q-108 11 -108 64v9q0 56 129 68
q550 37 662 37z" />
    <glyph glyph-name="greater" unicode="&#x3e;" horiz-adv-x="919" 
d="M855 855q0 -32 -72 -101q-364 -395 -525 -508q-99 -90 -148 -90q-42 0 -51 61q22 97 219 258q154 140 373 368q15 0 25 23q-546 519 -546 604v11q0 39 36 39q93 -43 541 -459q148 -128 148 -206z" />
    <glyph glyph-name="question" unicode="?" horiz-adv-x="1394" 
d="M702 143h8q148 0 148 -119q0 -102 -148 -141q-134 31 -134 133q23 127 126 127zM555 1670h89q265 0 549 -237q178 -172 178 -400q-28 -177 -416 -285q-329 -176 -274 -301q19 0 30 -52q0 -74 -141 -104q-141 25 -141 141v44q0 156 274 275q345 179 423 259v60
q0 225 -400 377q-34 15 -97 15h-89q-7 0 -7 7q-184 0 -333 -301q-8 -12 -8 -37v-74q0 -89 148 -150q56 -29 67 -52q0 -34 -82 -52h-22q-162 0 -267 244q-15 70 -15 112v7q0 254 319 460q106 44 215 44z" />
    <glyph glyph-name="at" unicode="@" horiz-adv-x="1817" 
d="M656 865q0 -156 103 -201q26 -6 46 -6q179 0 207 220q0 45 13 45q-105 175 -272 175q-86 0 -97 -168v-65zM857 1623h123q66 0 265 -78q181 -51 486 -376q58 -82 58 -155q-16 -329 -52 -356q-48 -113 -278 -234q-79 -38 -168 -38q-141 0 -240 136q-126 -65 -253 -65
q-260 0 -375 272q-20 82 -20 123v78q0 281 272 356h84q170 -11 318 -117q86 -110 116 -110q68 0 91 -103h-6q0 -7 6 -7l-6 -78v-51q-39 -84 -39 -104q0 -110 71 -130q214 100 214 227q13 181 13 220q-129 200 -382 369q-163 72 -175 72h-59q-378 0 -518 -195
q-142 -131 -142 -401v-7q33 -252 194 -479q145 -136 337 -214q25 -13 71 -13h52q119 0 376 65q64 -9 64 -58q-92 -201 -466 -214q-264 0 -609 285q-186 212 -253 570q-6 35 -6 58q15 249 168 467q256 285 668 285z" />
    <glyph glyph-name="A" unicode="A" horiz-adv-x="1301" 
d="M371 426q7 1 8 -6q23 2 149 20q234 21 441 -4q-182 469 -244 699q-20 -14 -223 -461q-106 -185 -131 -248zM722 1547l21 2q85 7 119 -225q47 -141 315 -892q59 -27 62 -68q-1 -64 0 -74q106 -162 108 -196l2 -14q-5 -82 -72 -88l-30 -2q-74 -7 -199 247q-240 22 -677 6
q-1 9 -94 14q-114 -232 -170 -237q-25 -2 -127 39q-17 116 373 820q278 459 320 642q25 24 49 26z" />
    <glyph glyph-name="B" unicode="B" horiz-adv-x="1131" 
d="M548 204q85 0 448 236q91 113 91 167v5q0 99 -74 132q-13 0 -269 24q-22 0 -208 -63q-173 -46 -251 -87v-6q55 -195 258 -408h5zM241 1322q-19 -55 -56 -315q10 -131 24 -170q145 22 189 82q38 39 70 157q0 63 -94 139q-8 0 -83 75q-6 0 -44 32h-6zM694 1048v-7
q0 -38 -24 -103h6q161 5 209 12q239 -44 239 -80q61 -40 130 -206h-7q14 -36 19 -79h-5l5 -13q-32 -216 -326 -377q-265 -179 -457 -226q0 -12 -73 -12h-18q-49 25 -49 61v7l5 42q-78 84 -145 232q-66 208 -92 220h-19q-47 0 -104 -67h-37q-43 25 -43 74q0 64 166 184v7
q-26 55 -56 356v141q0 50 7 116q-7 12 -7 19q7 103 25 116v13l-25 36v7q0 76 93 86q42 0 128 -105q101 -101 130 -110q307 -134 307 -239q18 -42 18 -105z" />
    <glyph glyph-name="C" unicode="C" horiz-adv-x="1202" 
d="M582 -30q-4 0 -4 -5q-194 38 -287 108q-325 224 -293 635q28 359 209 596q246 189 441 175q1 7 70 8q181 -13 306 -200q43 -75 39 -133q-15 -49 -47 -41q-119 83 -172 106q-82 30 -122 33q-270 -31 -272 -66q-117 -56 -220 -265q-44 -84 -55 -194l-5 -62
q-10 -119 119 -313q139 -146 301 -158l45 -3q108 -8 285 78q100 74 214 201l19 -1q23 -15 21 -125q-13 -168 -340 -329q-96 -43 -252 -51v6z" />
    <glyph glyph-name="D" unicode="D" horiz-adv-x="1054" 
d="M193 1340v-211q0 -289 171 -742l86 -176l11 -5q226 185 321 376q75 123 75 223v47q0 157 -251 388q-249 100 -327 100h-86zM1040 813q0 -274 -343 -654q-38 -27 -166 -142q-53 -17 -70 -17q-95 26 -161 135q-129 232 -209 582q-70 375 -70 605v6q-21 31 -21 53v29
q22 101 91 101l209 17q411 -67 498 -218q242 -223 242 -497z" />
    <glyph glyph-name="E" unicode="E" horiz-adv-x="1223" 
d="M56 1520h28q498 -174 629 -174q496 -107 496 -227v-16q-7 -24 -50 -24h-17q-129 0 -869 180q0 11 -33 11v-5q-6 -134 -6 -140q0 -110 50 -360q323 47 468 47h84q145 -22 145 -47v-23q0 -18 -84 -29q-94 -53 -563 -122q52 -190 162 -377q470 140 546 140q0 11 33 11
q50 -10 50 -46q-107 -134 -289 -203q-329 -110 -379 -116q-92 0 -167 162q-49 57 -145 343q-17 50 -17 57h-44q-78 11 -78 70v11q0 52 83 76q-33 114 -72 592v63q0 8 -17 59v11q10 76 56 76z" />
    <glyph glyph-name="F" unicode="F" horiz-adv-x="1032" 
d="M914 834q45 -4 48 -29l-2 -25q-2 -18 -73 -38q-53 -46 -163 -78t-324 -89v-6q28 -109 154 -339q64 -76 110 -160q26 -2 23 -77q-94 -53 -135 -49q-126 22 -337 580q-38 -3 -51 -8q-71 33 -66 87l1 13q3 39 63 81v7q-61 193 -97 470q-28 83 -39 228q-17 21 -24 64
q8 87 63 82l19 -1q330 -119 623 -146q432 -81 420 -212v-7q-4 -37 -113 -27q-311 28 -768 140q0 -6 -5 -6q6 -219 55 -373q29 -159 51 -161q482 130 537 75z" />
    <glyph glyph-name="G" unicode="G" horiz-adv-x="1110" 
d="M666 1496q197 -42 239 -236q3 -9 0 -29q-16 -26 -43 -34l-39 7q-22 5 -74 44t-91 54q-164 34 -282 -131q-73 -74 -99 -193q-81 -381 51 -600q212 -161 292 -178l45 -10q194 14 277 106q57 54 73 150q26 121 -4 333q-279 -82 -484 -94l-17 3q-56 25 -40 82q12 63 217 95
q265 72 398 124l32 -6q87 -19 84 -234q32 -202 -3 -367q-74 -347 -525 -396q-31 0 -57 5l-44 10q-111 23 -375 221q-213 282 -106 783l5 23q62 289 370 456q88 36 200 12z" />
    <glyph glyph-name="H" unicode="H" horiz-adv-x="1421" 
d="M193 1611l17 -3q118 -8 139 -367q26 -99 41 -416q385 81 738 125q19 150 18 388q11 54 130 51q130 6 92 -467q47 -38 131 -74l-5 -30q-4 -20 -133 -56q0 -467 -22 -576q-31 -100 -170 -112q-93 17 -58 278q-8 350 1 396q-299 -17 -648 -94q-37 -7 -39 -17
q14 -158 146 -495q12 -32 8 -51l-12 -65q-5 -26 -21 -46q6 -1 5 -7q-67 -13 -120 -3q-113 7 -153 233q-64 181 -87 377l-308 -86l-16 3q-59 30 -50 84q18 88 319 170q15 16 32 13q-47 752 -41 785l3 17q18 53 63 45z" />
    <glyph glyph-name="I" unicode="I" horiz-adv-x="509" 
d="M253 1567q23 12 58 8q69 -5 72 -131q-33 -265 -36 -298q-20 -203 44 -1030l-11 -105l-26 -61l-13 1q1 7 -47 42q-71 106 -116 335q-77 469 -41 849q59 369 116 390z" />
    <glyph glyph-name="J" unicode="J" horiz-adv-x="968" 
d="M842 1522h12q74 -23 74 -74q0 -73 -6 -117q0 -80 23 -425q-17 -434 -57 -485q-51 -219 -182 -326q-101 -111 -274 -111q-57 -12 -103 -12q-174 0 -302 258q-34 80 -34 191q27 246 143 246q22 -8 22 -55v-7q0 -32 -11 -129q0 -218 177 -308h5q228 25 228 56
q206 130 206 713q-18 231 -18 273t6 96q-341 -123 -450 -123q-57 23 -57 68v6q0 74 205 117q377 148 393 148z" />
    <glyph glyph-name="K" unicode="K" horiz-adv-x="1400" 
d="M1150 1452q0 -137 -282 -541q138 -198 204 -279q212 -206 298 -347q16 -34 16 -57q0 -69 -83 -86h-9q-50 0 -123 114q-353 397 -372 442t-34 60q-89 -105 -267 -365q53 -98 164 -273l6 -41q-12 -79 -67 -79h-5q-63 0 -154 159q-52 65 -52 86h-5q-51 -91 -103 -91h-15
q-77 10 -77 85v11q0 32 97 177v12q-129 386 -215 563q-72 226 -72 456q11 73 61 73q68 0 93 -204q47 -271 160 -456q92 -267 92 -285h5q270 357 277 399q89 85 220 301q108 263 129 274l35 6q78 -25 78 -114z" />
    <glyph glyph-name="L" unicode="L" horiz-adv-x="997" 
d="M237 1417l21 2q77 7 119 -220q57 -261 -10 -651q-96 -282 -121 -373l5 1q127 71 445 71q136 -18 181 -14q95 -63 108 -134q-3 -177 -114 -102l-162 40q-175 39 -345 -24q-316 -108 -337 8q-7 11 -11 33q-9 46 84 299q184 563 51 883l-46 124q86 53 132 57z" />
    <glyph glyph-name="M" unicode="M" horiz-adv-x="1499" 
d="M1146 1663q83 0 117 -293q77 -440 247 -1084q48 -147 48 -181v-28q-36 -79 -125 -97h-18q-92 0 -150 327l-174 876v8h-6q0 -69 -340 -655q-36 -90 -102 -90h-6q-64 0 -192 187q-6 0 -239 265v-7q54 -387 90 -723q0 -181 -84 -181q-72 0 -72 215q-119 731 -119 1002
q0 37 41 69h30q37 0 198 -194q119 -111 328 -327q183 257 282 465q162 210 162 383q24 63 84 63z" />
    <glyph glyph-name="N" unicode="N" horiz-adv-x="1421" 
d="M1216 1572q103 0 120 -184v-52q-25 -253 -32 -643q0 -229 96 -547v-25q-26 -89 -89 -89h-19q-66 0 -121 96q-485 527 -592 591q-51 28 -299 267v-6l76 -904q-18 -76 -76 -76q-104 0 -134 350q-47 683 -108 802q-32 77 -38 114q20 108 89 108h25q62 0 249 -178
q284 -271 528 -457q201 -222 210 -224l-7 45v229q0 327 70 623q13 160 52 160z" />
    <glyph glyph-name="O" unicode="O" horiz-adv-x="1061" 
d="M231 521q119 -313 290 -281q311 58 354 463q10 52 -23 228t-151 296q-49 32 -140 15q-118 -42 -305 -372q-47 -159 -20 -348zM544 1470q147 28 281 -64q111 -112 176 -302l26 -78q76 -405 -56 -636q-49 -173 -319 -317q-44 -13 -73 -18l-74 -14q-213 -40 -387 251
q-67 67 -88 179q-43 230 105 605q227 333 303 347q76 42 106 47z" />
    <glyph glyph-name="P" unicode="P" horiz-adv-x="891" 
d="M240 1266l-1 -5q6 -205 29 -320q5 -216 63 -467q14 -2 309 123q80 82 84 105l5 30q-41 193 -273 320q-98 61 -211 213zM186 1613q39 -7 149 -190q178 -188 284 -251q202 -134 220 -213q97 -163 84 -240l-12 -75q-41 -199 -431 -323l-88 -46q73 -206 88 -280l-5 -29
q-12 -74 -98 -68q-83 14 -177 332q-82 26 -73 83l5 34q3 17 25 44q-37 84 -75 398q-34 396 -30 424l16 242l8 10q-4 12 -3 17q50 141 113 131z" />
    <glyph glyph-name="Q" unicode="Q" horiz-adv-x="1414" 
d="M226 866l-5 -30q-29 -211 1 -259q68 -182 157 -237q107 -80 185 -103q114 -19 316 53l1 6q-92 132 -84 180t55 65l26 -5q45 -7 124 -111l10 -1q20 47 55 157q-3 12 -2 19l7 10q4 198 -37 264q-28 93 -113 235q-99 132 -222 154l-69 11q-222 -32 -319 -166
q-72 -163 -86 -242zM704 1505l59 -10q227 -39 365 -368q112 -190 142 -383l1 -221q-27 -158 -130 -308q202 -286 189 -372l-6 -35q-21 -27 -43 -23q-113 65 -213 222l-57 87q-241 -108 -451 -72l-27 4q-226 96 -374 310q-138 253 -107 437l13 76l1 35q6 8 10 28t0 30
q68 259 221 423q144 143 225 130q92 26 182 10z" />
    <glyph glyph-name="R" unicode="R" horiz-adv-x="1259" 
d="M403 1130q0 -118 -7 -359q7 -161 21 -251q246 53 246 96q0 21 114 39q136 82 136 142v6q0 80 -271 291q-44 36 -225 219h-7q-7 -65 -7 -183zM356 1655q52 0 163 -187l565 -484q88 -110 88 -187q0 -133 -239 -265v-12q52 -100 538 -613q28 -46 28 -71q-28 -58 -96 -58h-28
q-96 0 -325 278q-12 0 -192 193q-127 167 -142 167q-146 -31 -258 -77q143 -256 143 -290q-27 -64 -75 -64h-21q-102 0 -177 154l-94 148q-175 -26 -219 -26q-76 0 -129 78v26q0 71 203 84q62 0 104 12q-21 118 -34 336q0 649 67 664q27 62 27 78q-34 52 -34 84t137 32z" />
    <glyph glyph-name="S" unicode="S" horiz-adv-x="1223" 
d="M704 1627q24 65 78 52t99 -315q110 -240 111 -332l-2 -7q-23 -94 -106 -74q-222 182 -384 221l-6 1q-194 47 -404 -259l-2 -7l10 -10l36 -8q42 -10 549 -12q106 -19 133 -25q333 -81 536 -322q62 -112 34 -228q-43 -273 -547 -351q-251 -53 -409 -15l-78 19
q-259 63 -304 315q0 54 11 97l10 40q97 240 257 201q89 -53 83 -77l-3 -13q-9 -37 -126 -77q-43 -43 -51 -80l-12 -47q-27 -112 213 -193q312 -75 654 118q76 55 84 86l3 14q29 196 -417 336q-128 31 -590 22q-31 0 -80 12q-203 49 -158 237q71 268 422 412q121 12 198 -6
t211 -86q-52 172 -53 361z" />
    <glyph glyph-name="T" unicode="T" horiz-adv-x="1032" 
d="M516 1495l19 -1q54 -2 113 -89h7q257 26 610 48q86 -23 84 -80l-2 -27q-4 -103 -377 -111q-268 -16 -269 -32q48 -191 142 -836q82 -351 78 -436q-2 -36 -47 -74q-166 7 -308 973q-55 314 -77 351q-445 -69 -543 -65q-161 8 -157 91v7q4 72 178 75l481 81l-4 45l1 12
q17 71 71 68z" />
    <glyph glyph-name="U" unicode="U" horiz-adv-x="1308" 
d="M225 1489q67 -29 98 -137l-28 -271q-20 -350 47 -486q10 -159 171 -244l43 -13q188 12 277 81q106 102 177 302q19 240 -59 511l-9 188q26 49 72 41q108 -13 147 -355q42 -109 47 -601v-324q-54 -117 -167 -103q-62 10 -47 152l5 -1q-9 58 -6 85h-5q-108 -139 -350 -171
q-60 -8 -93 -3l-25 4q-100 17 -287 191q-128 223 -129 381q-12 1 -12 212l2 23q35 548 111 535q9 5 20 3z" />
    <glyph glyph-name="V" unicode="V" horiz-adv-x="1457" 
d="M1565 1612q20 0 40 -41q0 -72 -260 -382q-317 -648 -317 -802v-55q0 -57 69 -210v-14q-19 -108 -101 -108t-251 224q-380 397 -461 568q-284 351 -284 563v6q9 95 81 95q65 0 122 -197q73 -126 298 -419q49 -102 339 -400q0 147 352 834q238 338 373 338z" />
    <glyph glyph-name="W" unicode="W" horiz-adv-x="1803" 
d="M1529 1652q166 0 239 -396q7 -20 7 -96v-67q-56 -800 -102 -800q-144 -293 -253 -293q-58 0 -204 191l-376 383h-7q-151 -249 -226 -451q-41 -34 -81 -34h-7q-71 0 -151 171q-221 295 -314 553q-54 154 -54 224v8q0 136 81 136h8q70 0 96 -157q182 -373 320 -546
q189 354 266 437q26 20 62 20q75 0 157 -150q80 -80 430 -444h6q96 124 96 526q28 153 35 349q0 35 -55 306v35q0 95 27 95z" />
    <glyph glyph-name="X" unicode="X" horiz-adv-x="1499" 
d="M1489 1432q0 -138 -578 -572q-96 -100 -113 -100v-13l515 -489q81 -57 81 -107v-25q0 -84 -106 -95q-74 4 -446 390l-201 182q-261 -243 -427 -496q-55 -107 -132 -107q-82 21 -82 82q39 146 339 508l151 157q-390 367 -415 478q19 81 76 81h6q68 0 264 -213
q12 0 226 -201q134 128 559 471q164 157 195 157h12q76 -18 76 -88z" />
    <glyph glyph-name="Y" unicode="Y" horiz-adv-x="1167" 
d="M209 1526q62 0 84 -114l-6 -32v-96q0 -26 -6 -69q6 -12 6 -25l-6 -14q6 -10 6 -25q-6 -33 -6 -39t6 -5l-6 -26q0 -205 62 -259q101 -89 228 -89q169 0 306 164q56 127 56 146q-11 148 -28 273h6q-6 13 -6 20q0 171 50 171q0 11 56 12q113 0 145 -76l-6 -31
q6 -112 17 -153q-11 -126 -11 -241v-64q0 -21 5 -31l-5 -39v-89q0 -355 -162 -596q-282 -286 -440 -286q-185 0 -456 235q-50 61 -56 96q12 44 33 44q82 0 273 -140q45 -33 145 -45q132 0 295 141q173 124 173 386v96q0 12 -11 12q-186 -178 -385 -178h-55q-279 0 -468 287
q-22 74 -28 133q6 13 6 19t-6 6q0 65 55 293t140 228z" />
    <glyph glyph-name="Z" unicode="Z" horiz-adv-x="1676" 
d="M1325 1422v-25q-21 -125 -359 -455q-555 -547 -595 -547v-12q564 -49 1105 -140q0 -6 6 -6q37 205 98 261h18q85 -62 85 -280t-122 -218q-327 97 -498 97q-231 43 -765 85h-128q-170 0 -170 110v12q0 58 160 176t606 547l212 219h-6q-634 -201 -778 -201q-85 11 -85 73
v18q0 75 195 103q596 197 923 268q98 -21 98 -85z" />
    <glyph glyph-name="bracketleft" unicode="[" horiz-adv-x="758" 
 />
    <glyph glyph-name="backslash" unicode="\" horiz-adv-x="569" 
 />
    <glyph glyph-name="bracketright" unicode="]" horiz-adv-x="758" 
 />
    <glyph glyph-name="asciicircum" unicode="^" 
 />
    <glyph glyph-name="underscore" unicode="_" horiz-adv-x="1024" 
d="M86 152l764 -68q144 -27 144 -48l4 -8q0 -21 -20 -32q-19 0 -40 4q-53 -12 -172 -16q-625 30 -724 84q-28 22 -28 44q11 40 72 40z" />
    <glyph glyph-name="grave" unicode="`" horiz-adv-x="1024" 
d="M205 1538q0 26 20.5 46t46.5 20t47 -12t169 -97l199 -232l-175 7l-245 181q-62 41 -62 87z" />
    <glyph glyph-name="a" unicode="a" horiz-adv-x="990" 
d="M197 526q46 -138 180 -201q138 31 241 260q-17 66 28 366q-73 6 -186 -19l-68 -16q-168 -39 -209 -146q-22 -110 14 -244zM265 1021q151 58 367 72q-3 8 42 39q71 28 131 -50q41 -334 6 -437q-3 -19 3 -33l85 -179q67 -99 78 -122q13 -73 -41 -95l-17 -8
q-108 -41 -211 120l-2 5q-9 -3 -90 -92q-45 -40 -70 -50l-50 -20q-189 -75 -402 184l-66 137q-118 252 63 420q84 73 174 109z" />
    <glyph glyph-name="b" unicode="b" horiz-adv-x="955" 
d="M540 867h-61q-6 0 -6 6l-12 -6h-116q85 -408 238 -587q120 93 189 312l6 31q0 117 -73 189q-97 55 -165 55zM125 1704q73 0 73 -161t98 -505q138 18 250 18q215 0 361 -177q67 -132 67 -244v-25q0 -166 -196 -421q-98 -97 -158 -104q-171 0 -227 128q-170 267 -207 507
q-25 89 -37 116q-94 -61 -110 -61h-12q-55 10 -55 55q0 76 134 165v6q-73 276 -73 434v61q0 208 92 208z" />
    <glyph glyph-name="c" unicode="c" horiz-adv-x="785" 
d="M342 1144l29 -5q106 -28 249 -121q133 -143 125 -203q-21 -32 -35 -30l-17 2q-36 5 -178 120q-60 32 -163 65q-139 -60 -162 -214q-6 0 -11 -39q-26 -176 132 -352q35 -54 103 -64q127 -19 185 45q70 42 121 58l6 -1q35 -5 22 -93q-15 -101 -175 -180q-89 -13 -183 4
q-227 33 -375 436q-13 76 -8 194q23 152 131 282q123 107 204 96z" />
    <glyph glyph-name="d" unicode="d" horiz-adv-x="877" 
d="M211 587l3 -33q1 -6 -5 -6q18 -178 322 -266h5q48 208 31 376l-19 200q-351 -132 -337 -271zM756 648q0 -5 6 -5q18 -326 -34 -429q-15 -46 -133 -68q-7 -6 -33 -9q-155 -14 -339 95q-176 123 -192 278l-5 54q-25 249 372 423q144 39 143 52l-17 167q0 13 -4 20t2 7
l-9 27q-9 97 -82 376q-5 44 55 76q114 11 205 -413l-5 -1q0 -5 6 -5q17 -116 23 -172l5 -50q104 10 173 -88l2 -16q4 -43 -57 -60q-72 15 -103 12q0 -5 -5 -6q0 -5 6 -4q-3 -31 -2 -45l7 -9q1 -6 -5 -6l8 -27l17 -169q1 -5 -5 -5z" />
    <glyph glyph-name="e" unicode="e" horiz-adv-x="976" 
d="M228 744l1 -55l7 -35l68 -9q58 1 409 -36l5 9q-43 167 -93 279q-70 135 -174 134h-21q-75 -1 -144 -101q-60 -136 -58 -186zM442 1211q298 4 420 -432q29 -56 59 -213q11 0 12 -39q2 -53 -96 -76q-53 0 -559 64l-23 -1l-13 5l-4 -10q40 -133 157 -216q48 -30 82 -29
q48 9 143 56q37 0 60 -64l1 -25q2 -74 -200 -116q-154 -2 -313 190q-61 85 -106 242q-148 35 -151 131l113 -13l10 55q-5 163 122 354q137 136 286 137z" />
    <glyph glyph-name="f" unicode="f" horiz-adv-x="933" 
d="M723 1683q176 -52 282 -320q11 -124 -4 -173q-34 -117 -104 -97q-43 13 -20 168q-14 114 -77 173q-56 80 -100 93l-15 5q-123 36 -216 -163q-27 -70 -36 -99q-41 -182 -18 -472q-3 71 7 -111q193 12 307 -21q39 -11 85 -65l-2 -5q-75 -53 -217 -47l-125 -7
q19 -109 79 -302q25 -55 58 -108l12 -44q176 -231 -49 -163l-101 142q-114 113 -194 480q-181 -3 -230 10l-26 8q-31 9 -44 48l6 21q12 41 157 41q4 7 99 9v5q-23 422 27 595l19 64q99 340 374 348q39 -5 66 -13z" />
    <glyph glyph-name="g" unicode="g" horiz-adv-x="962" 
d="M191 642l5 -25q88 -178 168 -163q83 -34 173 -19q116 21 184 298q4 10 -1 37q-189 141 -305 120l-18 -3q-113 -21 -204 -151q-9 -58 -2 -94zM367 1051q187 34 370 -133q36 114 55 142l42 14q53 -14 60 -52t8 -80q16 -52 21 -80t-25 -241q20 -279 55 -536
q9 -133 -103 -296q-117 -140 -435 -193q-109 -20 -253 79q-122 108 -148 253t97 190q29 5 86 -191q87 -148 150 -136q5 -11 40 -12q375 69 370 276q11 79 -19 241l-8 43q-71 -70 -160 -86l-30 -6q-149 -27 -361 85q-139 138 -159 247l-6 36q-53 287 317 429z" />
    <glyph glyph-name="h" unicode="h" horiz-adv-x="1036" 
d="M136 1712q93 -28 62 -298q-1 -273 47 -448q31 -122 39 -124q232 88 345 70q113 -17 248 -74q125 -165 137 -356q-8 -226 -19 -333q-35 -70 -90 -63q-87 13 -99 118t-4 333q-44 168 -113 177q-49 35 -113 44q-159 -5 -257 -62q55 -255 131 -352l-5 -107q-3 -56 -88 -46
q-89 13 -230 376q-12 28 -18 29q-95 -62 -124 -58l-22 4q-8 1 -24 30l2 15q7 42 138 147q-83 422 -52 624q-8 90 3 160l3 21q30 184 75 177z" />
    <glyph glyph-name="i" unicode="i" horiz-adv-x="360" 
d="M129 836q132 -23 157 -443q39 -230 30 -292q-28 -47 -48 -43l-24 4q-180 32 -212 734q35 51 97 40zM81 1502l41 -7q88 -15 59 -208q8 -2 -17 -221q-32 -13 -59 -9q-38 7 -81 174q-30 23 -8 225q29 39 65 46z" />
    <glyph glyph-name="j" unicode="j" horiz-adv-x="501" 
d="M254 992l19 -3q67 -8 90 -182q32 -114 93 -635q7 -103 -1 -170q-30 -249 -277 -387q-43 -8 -60 -6l-26 3q-190 23 -323 362l-3 85q11 90 60 111l25 -3q112 -32 84 -169q90 -213 171 -223q152 90 171 275q13 102 -65 548q-26 107 -70 284q73 99 112 110zM160 1255
q-100 21 -96 273q27 68 78 57l19 -4q71 -14 96 -246l-2 -6q-45 -84 -95 -74z" />
    <glyph glyph-name="k" unicode="k" horiz-adv-x="969" 
d="M3 1496q17 104 79 95t55 -195q33 -179 71 -649l24 -15q397 285 573 276l11 -7q11 4 23 2q4 -11 3 -17q-8 -48 -269 -200l-8 -10l296 -477q65 -157 57 -206l-19 -8q-99 66 -101 90q-325 412 -334 466l-25 44q-183 -105 -213 -136q24 -142 162 -474l-6 -31q-13 -41 -53 -35
q-132 20 -261 440q-49 29 -54 56l5 26q4 23 18 40q-65 752 -45 863z" />
    <glyph glyph-name="l" unicode="l" horiz-adv-x="474" 
d="M133 51q-69 39 -61 127q5 63 34 324q15 190 -31 955q-5 65 -2 115l7 77q1 18 23 68h6q58 -19 118 -234q99 -542 59 -1002l-4 -52q-54 -366 -103 -362q-1 -12 -46 -16z" />
    <glyph glyph-name="m" unicode="m" horiz-adv-x="1591" 
d="M1555 408v-82q-12 -107 -93 -107q-88 0 -88 208q-5 275 -151 423q-98 150 -144 137q-122 -270 -144 -635v-108q-23 -88 -81 -88h-12q-94 0 -119 265q-136 315 -279 435q0 -26 -122 -429v-31q17 -139 17 -158q-26 -69 -81 -69q-153 -14 -244 427q-36 96 -36 171
q67 70 111 70t98 -234q5 0 5 -11h7q64 195 116 403q32 72 71 89h35q138 -51 245 -228l141 -233q58 282 122 416q66 164 112 164q8 6 34 6q284 -199 421 -498q59 -208 59 -303z" />
    <glyph glyph-name="n" unicode="n" horiz-adv-x="1174" 
d="M473 1093h39q155 0 398 -289q197 -321 169 -604v-29q-21 -116 -58 -116q0 -7 -6 -7h-26q-86 71 -83 344q-55 240 -214 407q-126 148 -256 56q-150 -223 -143 -470l52 -145v-8q0 -69 -84 -87q-143 0 -257 789l-6 88q13 50 51 50h26q46 0 116 -377h6q144 398 276 398z" />
    <glyph glyph-name="o" unicode="o" horiz-adv-x="905" 
d="M273 867h-11q-73 0 -85 -194v-34q0 -193 160 -263q74 -28 130 -28q148 0 211 263l5 69q0 94 -121 201q-63 13 -79 13q-169 -27 -210 -27zM504 1109q198 0 315 -305q15 -60 15 -121q0 -352 -284 -514q-48 -13 -77 -13h-30q-259 0 -387 270q-35 117 -35 196q0 265 137 358
q236 122 290 122q18 7 56 7z" />
    <glyph glyph-name="p" unicode="p" horiz-adv-x="885" 
d="M310 930l-117 42q-2 -242 37 -502l11 -183l6 -1q48 20 232 75q129 88 136 120q-24 165 -201 365zM21 1186q24 55 76 46q124 -92 217 -117q254 -129 333 -269q163 -233 136 -365q-30 -155 -320 -288q-128 -41 -206 -122l95 -355l-47 -108q-8 -16 -48 -21q-96 49 -159 247
q-38 258 -52 292t-7 64l13 35q-56 463 -59 633q16 236 17 243q21 43 11 85z" />
    <glyph glyph-name="q" unicode="q" horiz-adv-x="807" 
d="M182 522v-15q0 -80 68 -150q35 -10 60 -10h39q109 0 211 133q-5 147 -54 147q-67 50 -137 50h-59q-50 0 -114 -105q-14 -35 -14 -50zM650 924q73 0 102 -353q42 -259 95 -670q33 -164 33 -244q0 -32 -43 -40q0 -15 -43 -20q-76 31 -80 60q-92 448 -97 635
q-134 -99 -245 -99h-44q-231 0 -295 208q-15 42 -26 110q0 200 225 334q40 10 48 10q190 0 294 -79q13 148 71 148h5z" />
    <glyph glyph-name="r" unicode="r" horiz-adv-x="707" 
d="M122 1107h5q36 0 51 -38q5 -124 5 -207v-84h6q79 187 239 253q52 24 84 24h11q130 0 190 -108v-19q-22 -71 -84 -71h-6q-39 0 -105 43q-84 -26 -162 -132q-67 -150 -67 -221q0 -131 134 -390v-15q0 -49 -73 -56h-5q-108 0 -290 414q-28 108 -28 197v38q0 322 56 353
q9 19 39 19z" />
    <glyph glyph-name="s" unicode="s" horiz-adv-x="870" 
d="M336 1195q257 11 352 -281l4 -45q-10 -58 -58 -60q-31 -1 -126 166q-92 65 -147 63l-38 -2q-50 -7 -52 -47q-17 -169 209 -238q347 -114 340 -288l-1 -25q-6 -166 -230 -283l-62 -9l-57 -2q-155 -7 -352 124q-90 98 -85 223q3 34 40 72q24 1 151 -151q155 -76 248 -72
l43 2q64 3 105 107q-83 154 -365 190q-215 187 -147 317l1 45q43 185 227 194z" />
    <glyph glyph-name="t" unicode="t" horiz-adv-x="820" 
d="M264 1589q95 -26 -18 -692q-17 -21 -3 -61l-11 -33q374 97 460 79l47 -10q8 -2 22 -31q-33 -110 -419 -167q-93 -30 -79 -55q-20 -130 76 -218l142 -30q160 5 184 99q106 56 149 -7l6 -2q19 -4 13 -60q-64 -211 -478 -196l-53 11q-160 35 -235 355q-26 93 -160 123l44 54
q79 -13 93 11q7 229 76 768q91 73 144 62z" />
    <glyph glyph-name="u" unicode="u" horiz-adv-x="948" 
d="M639 1223q83 0 150 -481q75 -347 123 -539v-13q-10 -96 -80 -96q-83 0 -140 289h-5q-66 -103 -219 -180q-110 -38 -140 -38q-256 0 -316 481q-5 43 -5 134q0 327 75 327q92 -7 103 -231q-9 -519 127 -519h27q284 82 284 289q5 1 5 64v6q-79 324 -79 365v57q42 85 90 85z
" />
    <glyph glyph-name="v" unicode="v" horiz-adv-x="933" 
d="M1010 1015q28 -19 28 -33q-174 -432 -322 -677q-30 -48 -42 -106l-13 -66q-16 -76 -126 -68q-45 9 -209 251q-104 148 -182 343q-104 310 -96 351q30 61 77 51l7 -1q93 -20 216 -376q62 -153 168 -284l12 -3q299 520 482 618z" />
    <glyph glyph-name="w" unicode="w" horiz-adv-x="1549" 
d="M691 1205q103 10 121 -187q7 -69 255 -440q115 -132 122 -131q138 229 126 364l-8 86q-9 95 -35 250q15 70 67 75l12 1q115 10 142 -284q-5 -12 -4 -19l7 -12q-5 -12 -5 -19q1 -6 7 -5l-3 -31l7 -80q22 -244 -245 -604q-12 -2 -42 -17q-79 -7 -185 150q-228 223 -307 417
l-12 -1q-91 -291 -246 -462q-69 -43 -94 -46l-30 -3q-123 -11 -233 344q-91 187 -112 423q20 125 86 131l12 1q56 6 80 -73q-14 -110 -11 -149l3 -31q8 -87 162 -430l18 1q152 285 228 591q25 181 117 190z" />
    <glyph glyph-name="x" unicode="x" horiz-adv-x="1089" 
d="M171 120h-18q-74 0 -74 110q0 131 258 385q-140 130 -375 264l-12 51v14q17 88 68 88h30q94 0 406 -299h6q466 343 700 343l6 -15v-22l-197 -175q-311 -233 -368 -292q424 -433 424 -561l12 -51q0 -46 -49 -51q-119 90 -197 160q-126 193 -313 393h-12
q-204 -199 -252 -320q-22 -22 -43 -22z" />
    <glyph glyph-name="y" unicode="y" horiz-adv-x="1051" 
d="M272 1000q54 -3 68 -36l16 -452q12 -68 38 -133t45 -60q124 77 286 397q-60 347 30 371l27 7q35 9 74 -72l22 -56q19 -50 56 -280q205 -524 13 -908q-75 -118 -227 -159q-276 -73 -603 146q-57 67 -87 125q-53 237 89 275q51 8 55 -3q-22 -120 -12 -144q90 -231 436 -241
l82 23q148 39 134 534q-5 48 -24 98q-150 -237 -281 -272l-41 -12q-197 -20 -268 163l-11 28q-87 222 29 604q34 52 54 57z" />
    <glyph glyph-name="z" unicode="z" horiz-adv-x="1025" 
d="M872 1050v-9q-1 -69 -101 -153q-158 -201 -273 -292v-9q161 -11 321 -234q52 -30 70 -31l23 -2q-51 195 108 177q51 -52 50 -161q0 -235 -124 -227q-138 9 -323 256q-61 39 -99 42q-137 9 -469 -217l-18 2q-64 18 -63 101v18q1 91 243 250l420 425l-370 -29
q-158 11 -157 117v26q0 9 30 43l58 -13q394 45 481 39l123 -8q70 -26 70 -111z" />
    <glyph glyph-name="braceleft" unicode="{" 
d="M514 902v468q0 74 77 141.5t185 67.5h108v-50h-90q-61 0 -107 -33.5t-47 -91.5v-500q0 -83 -60.5 -158.5t-142.5 -76.5v-2q82 -1 143 -76t61 -158l-1 -500q1 -58 47 -91.5t107 -33.5h90v-50h-108q-108 0 -184.5 67.5t-77.5 141.5v468q0 66 -51 132t-223 71v60
q172 5 223 71t51 133z" />
    <glyph glyph-name="bar" unicode="|" 
d="M427 1577h160v-1995h-160v1995z" />
    <glyph glyph-name="braceright" unicode="}" 
d="M500 435v-468q-1 -74 -77.5 -141.5t-184.5 -67.5h-108v50h90q61 0 107 33.5t47 91.5l-1 500q0 83 61 158t144 76v2q-83 1 -143.5 76.5t-60.5 158.5v500q-1 58 -47 91.5t-107 33.5h-90v50h108q108 0 185 -67.5t77 -141.5v-468q0 -67 51 -133t223 -71v-60q-172 -5 -223 -71
t-51 -132z" />
    <glyph glyph-name="asciitilde" unicode="~" 
d="M685 599q-60 0 -177.5 48.5t-172.5 48.5t-111.5 -28t-129.5 -112v156q110 125 237 125q64 0 181.5 -49.5t171.5 -49.5t110 28t129 112v-156q-108 -123 -238 -123z" />
    <glyph glyph-name="exclamdown" unicode="&#xa1;" horiz-adv-x="672" 
 />
    <glyph glyph-name="cent" unicode="&#xa2;" horiz-adv-x="1139" 
 />
    <glyph glyph-name="sterling" unicode="&#xa3;" 
d="M588 1378h-2q-100 0 -187 -97t-87 -245q0 -15 1 -30q0 -135 53 -273h360v-60h-334q14 -31 40 -77t26 -121q0 -161 -162 -375h402q130 0 189 132l49 -1l-103 -231h-719l1 50q187 238 187 418q0 77 -26 126t-39 79h-161v60h135q-58 143 -58 253q0 226 123.5 347t306.5 121
h4q75 0 185.5 -14t110.5 -34v-161h-58q-5 61 -77 102q-72 31 -160 31z" />
    <glyph glyph-name="currency" unicode="&#xa4;" horiz-adv-x="2370" 
d="M567 754q-4 -22 230 -77l24 127q-82 -28 -254 -50zM1411 722q-103 -87 -186 -164q91 -16 450 -151l-254 314zM1063 847l-42 -226l19 -4q3 15 278 234q2 11 -48 55q-160 -32 -207 -59zM1079 1144q-11 -111 9 -114q70 10 73 25q-72 87 -82 89zM2099 -49q-17 -76 14 -133
l-2 -9q-3 -18 -22 -15l-29 5q-19 3 -15 21q19 48 23 71l9 18q-3 18 -1 27q33 178 -992 496q-179 -157 -315 -432q-47 -29 -83 -23l-18 3q-69 12 -69 105q145 306 168 429l-383 94q-72 12 -295 -6q-61 26 -73 78l5 27q12 65 123 82q38 43 626 164q61 9 66 36q50 270 -66 590
q-16 3 -7 67q38 87 111 75l29 -5q109 -19 159 -298l260 -335q660 178 744 164q60 -43 53 -84q-34 -59 -282 -148q-149 -89 -280 -196q344 -444 696 -773q12 -40 9 -57q-74 -81 -68 -163q-11 -62 18 -195q-2 -13 -54 -23l-19 4q0 1 9 39l19 53l-6 20q11 21 7 32t0 30l9 53
q-3 99 -78 112z" />
    <glyph glyph-name="yen" unicode="&#xa5;" horiz-adv-x="1262" 
d="M27 560.5q0 25.5 28 25.5h467l-121 172h-344q-30 0 -30 24t28 25h307q-43 57 -108 155q-131 197 -227 197q-7 0 -13 5.5t-6 11.5q0 36 43 36q27 0 123 -8t164 -8h88q33 0 41 -6.5t8 -26.5t-53 -20l-37 4q-51 0 -51 -37t63 -127l158 -221q13 -19 33 -53q41 -70 71 -70
q17 0 31 20l277 396q18 27 18 48t-12.5 32t-67.5 15t-55 26q0 30 33 30l123 -8h139l102 2q25 0 27 -16q0 -28 -38 -34q-18 -3 -27 -5q-63 -15 -147 -117q-7 -9 -12 -15l-169 -206h323q33 0 33 -23q0 -15 -6 -20.5t-23 -5.5h-366q-46 -57 -96.5 -112.5t-52.5 -59.5h511
q33 0 33 -23q0 -28 -29 -28h-530l-2 -60l2 -215q0 -114 6 -150t28 -48t99.5 -14.5t77.5 -31.5q0 -12 -10 -20t-25 -8l-100 8l-351 -8q-31 0 -40 4t-9 16t8.5 19t72.5 20q63 13 81 27q32 26 31 151l-2 242q0 35 -6 67l-484 1q-28 0 -28 25.5z" />
    <glyph glyph-name="brokenbar" unicode="&#xa6;" 
d="M427 1578h160v-789h-160v789zM427 371h160v-789h-160v789z" />
    <glyph glyph-name="section" unicode="&#xa7;" 
d="M723 -112q0 125 -316 276q-123 64 -175.5 137t-52.5 177q0 148 89 237q67 65 170 82l-40 19q-123 64 -175.5 137t-52.5 177q0 148 90 236t232 88h3q66 0 163 -16.5t97 -41.5v-194h-51q-6 81 -78 130t-151 53h-15q-78 0 -125 -44.5t-47 -117.5q0 -132 287 -269
q149 -67 204.5 -143.5t55.5 -187.5q0 -171 -101 -282q-47 -39 -99 -64q109 -55 159 -125t50 -180q0 -171 -101 -283q-124 -102 -277 -105v1q-6 -1 -13 -1h-3q-66 0 -163 16.5t-97 41.5v194h51q5 -81 77 -129t148 -53q113 6 185 70t72 164zM715 540q0 5 -1 10h-2q-1 14 -4 27
q-22 61 -113 127q-59 29 -131 29t-119.5 -44.5t-47.5 -117.5q0 -123 248 -250q56 16 97 53q73 65 73 166z" />
    <glyph glyph-name="dieresis" unicode="&#xa8;" horiz-adv-x="1024" 
d="M684 1373q12 0 27 -13l69 -74q10 -14 10 -26t-12 -25l-69 -76q-17 -17 -28 -17t-22 12l-76 87q-9 11 -9 23t14 25l71 72q13 12 25 12zM318 1373q12 0 28 -14l69 -73q10 -14 10 -26t-12 -26l-69 -75q-17 -17 -28 -17t-22 12l-76 86q-9 12 -9 24t14 25l71 72q12 12 24 12z
" />
    <glyph glyph-name="copyright" unicode="&#xa9;" horiz-adv-x="1301" 
d="M598 1114q167 0 292 -202v-63q0 -10 -28 -27q-137 145 -194 146h-42q-61 -42 -98 -188q68 -279 167 -279l174 56h7q21 0 21 -28q0 -144 -216 -223h-20q-159 0 -265 279q-35 91 -35 188q0 175 188 334l42 7h7zM640 1406q186 0 327 -174v-7h-7q-191 84 -272 84
q-293 -19 -341 -111q-174 -297 -174 -488v-42q0 -222 300 -438q92 -35 188 -35q162 15 313 160q139 169 139 327l-21 230q0 36 35 56h7q101 0 146 -307v-13q0 -223 -202 -446q-222 -195 -417 -195h-35q-300 0 -529 376q-77 158 -77 285q0 247 230 613q118 125 390 125z" />
    <glyph glyph-name="ordfeminine" unicode="&#xaa;" horiz-adv-x="648" 
 />
    <glyph glyph-name="guillemotleft" unicode="&#xab;" horiz-adv-x="944" 
d="M843 782v-37l-205 -266l205 -266v-37h-14l-342 303l342 303h14zM530 782v-37l-205 -266l205 -266v-37h-14l-342 303l342 303h14z" />
    <glyph glyph-name="logicalnot" unicode="&#xac;" 
d="M87 767h840v-491l-1 -1h-98v392h-741v100z" />
    <glyph glyph-name="registered" unicode="&#xae;" horiz-adv-x="1674" 
d="M1514 718q0 134 -52 259.5t-146 220.5t-218 146.5t-260 51.5t-261 -51.5t-271 -199t-146 -427.5q0 -279 199 -478q202 -198 478 -198t476 196q201 203 201 480zM838 1456q148 0 282.5 -57t237.5 -159t159.5 -239t56.5 -283t-56 -281.5t-162 -240.5q-215 -214 -518 -214
t-520 214q-218 214 -218 522q0 148 55.5 283t158.5 239t239.5 160t284.5 56zM1130 861q0 -175 -146 -285l82 -116q100 -141 150 -141h34v-50h-346v50h45q30 0 30 22q0 29 -69 114l-75 102q-42 0 -84 42v-159q0 -121 36 -121h53v-50h-316v50h43q37 0 37 121v538
q0 121 -37 121h-43v70h356q64 -1 124 -42t93 -114t33 -152zM751 1099v-374q23 -62 56 -86q32 -25 59 -25h6q31 4 76 55t45 184q0 82 -26.5 145.5t-59 82t-63.5 18.5h-93z" />
    <glyph glyph-name="macron" unicode="&#xaf;" horiz-adv-x="670" 
 />
    <glyph glyph-name="degree" unicode="&#xb0;" horiz-adv-x="674" 
d="M338 1442q116 0 197 -82t81 -196t-82 -196t-198 -82t-196 81t-80 197t81 197t197 81zM339 1372q-86 0 -147.5 -61t-61.5 -148t61 -147t148 -60t147 60t60 147t-60.5 148t-146.5 61z" />
    <glyph glyph-name="plusminus" unicode="&#xb1;" 
 />
    <glyph glyph-name="uni00B2" unicode="&#xb2;" 
 />
    <glyph glyph-name="uni00B3" unicode="&#xb3;" 
 />
    <glyph glyph-name="acute" unicode="&#xb4;" horiz-adv-x="1024" 
d="M710 1434q26 0 46.5 -20t20.5 -46q0 -46 -62 -87l-330 -203h-69l291 297q35 35 56 47t47 12z" />
    <glyph glyph-name="mu" unicode="&#xb5;" horiz-adv-x="1180" 
 />
    <glyph glyph-name="paragraph" unicode="&#xb6;" horiz-adv-x="1024" 
d="M929 1435v-70h-127v-1365h-82v1365h-166v-1365h-84v738q-174 8 -275.5 102.5t-101.5 248.5t107.5 250t285.5 96h443z" />
    <glyph glyph-name="periodcentered" unicode="&#xb7;" horiz-adv-x="508" 
d="M256 838q14 0 31 -16l80 -86q12 -16 12 -30t-14 -30l-80 -88q-21 -20 -33 -20t-25 14l-88 101q-10 13 -10 27t16 30l82 84q15 14 29 14z" />
    <glyph glyph-name="periodcentered" unicode="&#x2219;" horiz-adv-x="508" 
d="M256 838q14 0 31 -16l80 -86q12 -16 12 -30t-14 -30l-80 -88q-21 -20 -33 -20t-25 14l-88 101q-10 13 -10 27t16 30l82 84q15 14 29 14z" />
    <glyph glyph-name="cedilla" unicode="&#xb8;" horiz-adv-x="1024" 
d="M635 -236.5q0 62.5 -151 62.5q-16 0 -34 -2l48 176h63l-37 -104q32 4 62 5q86 0 134 -40.5t48 -114.5t-58 -119t-164 -45t-186 32v96q86 -52 152 -52t94.5 21.5t28.5 84z" />
    <glyph glyph-name="uni00B9" unicode="&#xb9;" 
 />
    <glyph glyph-name="ordmasculine" unicode="&#xba;" horiz-adv-x="718" 
 />
    <glyph glyph-name="guillemotright" unicode="&#xbb;" horiz-adv-x="944" 
d="M414 176v37l205 266l-205 266v37h14l342 -303l-342 -303h-14zM101 176v37l205 266l-205 266v37h14l342 -303l-342 -303h-14z" />
    <glyph glyph-name="onequarter" unicode="&#xbc;" horiz-adv-x="1708" 
 />
    <glyph glyph-name="onehalf" unicode="&#xbd;" horiz-adv-x="1964" 
 />
    <glyph glyph-name="threequarters" unicode="&#xbe;" horiz-adv-x="1708" 
 />
    <glyph glyph-name="questiondown" unicode="&#xbf;" horiz-adv-x="748" 
 />
    <glyph glyph-name="Agrave" unicode="&#xc0;" horiz-adv-x="1540" 
 />
    <glyph glyph-name="Aacute" unicode="&#xc1;" horiz-adv-x="1540" 
 />
    <glyph glyph-name="Acircumflex" unicode="&#xc2;" horiz-adv-x="1540" 
 />
    <glyph glyph-name="Atilde" unicode="&#xc3;" horiz-adv-x="1540" 
 />
    <glyph glyph-name="Adieresis" unicode="&#xc4;" horiz-adv-x="1266" 
d="M1084 1736h13q7 0 14 -12v-7q1 -9 -3 -17q40 -60 47 -197l3 -40q11 -204 -40 -605q-25 -40 -56 -40q-46 -1 -58 54l-6 103l20 387q14 333 50 334q2 40 16 40zM226 1550l-1 4q3 117 44 121l8 1q19 1 61 -93q74 -212 91 -488q0 -10 6 -29q-5 -80 -58 -85l-9 -1
q-56 -5 -74 87q-63 401 -68 483zM398 341q6 1 7 -4q20 2 126 21q199 25 376 9q-174 398 -236 594q-17 -12 -171 -403q-84 -162 -102 -217zM611 1292q21 21 59 25q72 9 110 -189q46 -120 305 -758q51 -21 55 -56q2 -55 3 -63q97 -136 101 -165l1 -13q0 -70 -58 -77l-24 -4
q-64 -7 -181 207q-205 12 -577 -15q-1 8 -81 9q-87 -203 -135 -209q-21 -2 -110 30q-19 99 285 716q219 403 247 562z" />
    <glyph glyph-name="Aring" unicode="&#xc5;" horiz-adv-x="1287" 
d="M787 1165h17q54 0 73 -111q45 -14 69 -24q96 -38 173 113l11 29q62 156 -121 294q-86 60 -161 90q-190 76 -354 -105l-30 -54q-29 -75 90 -224q78 -44 108 -54t65 -19q13 27 20 49q22 16 40 16zM1217 -43v-11q-9 -59 -63 -59h-23q-92 7 -201 302q-155 26 -501 42
q0 7 -74 17q-156 -196 -201 -196q-19 0 -97 36q-7 86 398 611q115 148 186 255q-5 2 -20 4q-14 3 -59 21q-242 96 -294 383q1 53 19 99q106 266 501 249q63 -12 97 -26l37 -15q316 -126 390 -392q8 -105 -16 -165q-79 -199 -275 -203q-63 4 -117 9q46 -164 173 -601
q44 -23 44 -54q-4 -47 -4 -54q100 -227 100 -252zM446 351q19 0 119 5q186 0 315 -25q-82 349 -116 522q-17 -9 -204 -324q-96 -128 -119 -173q5 0 5 -5z" />
    <glyph glyph-name="AE" unicode="&#xc6;" horiz-adv-x="2118" 
 />
    <glyph glyph-name="Ccedilla" unicode="&#xc7;" horiz-adv-x="1399" 
 />
    <glyph glyph-name="Egrave" unicode="&#xc8;" horiz-adv-x="1151" 
 />
    <glyph glyph-name="Eacute" unicode="&#xc9;" horiz-adv-x="1151" 
 />
    <glyph glyph-name="Ecircumflex" unicode="&#xca;" horiz-adv-x="1151" 
 />
    <glyph glyph-name="Edieresis" unicode="&#xcb;" horiz-adv-x="1151" 
 />
    <glyph glyph-name="Igrave" unicode="&#xcc;" horiz-adv-x="657" 
 />
    <glyph glyph-name="Iacute" unicode="&#xcd;" horiz-adv-x="657" 
 />
    <glyph glyph-name="Icircumflex" unicode="&#xce;" horiz-adv-x="657" 
 />
    <glyph glyph-name="Idieresis" unicode="&#xcf;" horiz-adv-x="657" 
 />
    <glyph glyph-name="Eth" unicode="&#xd0;" horiz-adv-x="1518" 
 />
    <glyph glyph-name="Ntilde" unicode="&#xd1;" horiz-adv-x="1554" 
 />
    <glyph glyph-name="Ograve" unicode="&#xd2;" horiz-adv-x="1614" 
 />
    <glyph glyph-name="Oacute" unicode="&#xd3;" horiz-adv-x="1614" 
 />
    <glyph glyph-name="Ocircumflex" unicode="&#xd4;" horiz-adv-x="1614" 
 />
    <glyph glyph-name="Otilde" unicode="&#xd5;" horiz-adv-x="1614" 
 />
    <glyph glyph-name="Odieresis" unicode="&#xd6;" horiz-adv-x="1357" 
d="M957 1723q14 1 16 -9q1 -10 -3 -14q45 -40 55 -130l3 -26q14 -134 -41 -397q-28 -27 -73 -27t-58 35l-7 68l20 253q15 219 54 220q2 26 18 26zM242 1596v5q1 130 47 135l11 1q22 2 70 -102q84 -233 106 -539q1 -10 8 -32q-6 -89 -67 -95l-10 -1q-63 -7 -85 96
q-74 442 -80 532zM222 137q185 -297 439 -263q462 60 515 447q14 50 -39 217t-232 279q-73 30 -208 13q-175 -42 -445 -360q-67 -152 -22 -332zM678 984q202 27 387 -53q155 -96 249 -262l38 -69q113 -356 -63 -560q-64 -153 -432 -284q-59 -12 -100 -17l-101 -14
q-293 -37 -537 216q-95 58 -126 157q-64 202 132 534q304 295 409 309q104 38 144 43z" />
    <glyph glyph-name="multiply" unicode="&#xd7;" 
d="M849 408v-6l-17 -13h-6q-5 0 -5 6q-11 -6 -17 -6q-55 0 -336 199q-158 -180 -187 -180h-12q-57 13 -57 65v25q0 56 120 187q-239 223 -239 282q0 31 51 39q90 -11 222 -135q61 -53 97 -71q353 277 426 277l17 -26v-6q-27 -108 -296 -348q239 -173 239 -289z" />
    <glyph glyph-name="Oslash" unicode="&#xd8;" horiz-adv-x="1614" 
 />
    <glyph glyph-name="Ugrave" unicode="&#xd9;" horiz-adv-x="1501" 
 />
    <glyph glyph-name="Uacute" unicode="&#xda;" horiz-adv-x="1501" 
 />
    <glyph glyph-name="Ucircumflex" unicode="&#xdb;" horiz-adv-x="1501" 
 />
    <glyph glyph-name="Udieresis" unicode="&#xdc;" horiz-adv-x="1501" 
 />
    <glyph glyph-name="Yacute" unicode="&#xdd;" horiz-adv-x="1233" 
 />
    <glyph glyph-name="Thorn" unicode="&#xde;" horiz-adv-x="1120" 
 />
    <glyph glyph-name="germandbls" unicode="&#xdf;" horiz-adv-x="1251" 
 />
    <glyph glyph-name="agrave" unicode="&#xe0;" horiz-adv-x="922" 
 />
    <glyph glyph-name="aacute" unicode="&#xe1;" horiz-adv-x="922" 
 />
    <glyph glyph-name="acircumflex" unicode="&#xe2;" horiz-adv-x="922" 
 />
    <glyph glyph-name="atilde" unicode="&#xe3;" horiz-adv-x="922" 
 />
    <glyph glyph-name="adieresis" unicode="&#xe4;" horiz-adv-x="908" 
d="M650 1139l5 70l59 263q48 227 83 224q7 26 20 25q21 -3 26 -12l1 -6q-1 -5 -6 -9q33 -48 27 -143l-2 -28q-10 -141 -101 -410q-28 -24 -60 -20q-47 6 -52 46zM264 1600l-1 3q0 94 41 95l9 1q19 0 61 -77q77 -171 100 -393q0 -8 7 -24q-5 -64 -57 -67h-10q-55 -2 -75 73
q-69 323 -75 389zM270 708q-32 -84 -22 -210t96 -191q103 7 211 201q-4 54 93 280q-76 18 -160 12l-50 -4q-125 -9 -168 -88zM347 922q130 30 307 11q-2 8 40 29q61 15 98 -63q-17 -305 -61 -391q-6 -17 -3 -30l42 -173q39 -97 45 -119q-1 -68 -48 -80l-15 -4
q-93 -22 -152 137l-1 5q-8 -2 -87 -69q-43 -30 -64 -35l-44 -10q-164 -40 -297 222l-32 132q-58 242 114 365q79 53 158 73z" />
    <glyph glyph-name="aring" unicode="&#xe5;" horiz-adv-x="941" 
d="M381 1533h-9q-66 0 -76 -118v-21q0 -117 144 -160q65 -17 116 -17q133 0 189 160l4 42q0 57 -107 123q-57 8 -72 8q-151 -17 -189 -17zM587 1690q189 0 301 -194q14 -39 14 -78q0 -225 -271 -328q-46 -9 -73 -9h-29q-247 0 -368 173q-34 75 -34 125q0 169 131 229
q225 78 276 78q18 4 53 4zM218 709q-18 -85 6 -207t117 -176q99 20 181 224q-11 52 55 284q-76 8 -158 -8l-48 -10q-121 -24 -153 -107zM121 836q71 62 169 100t274 41q-2 7 35 33q59 22 104 -49q22 -300 -9 -389q-4 -18 0 -30l63 -163q51 -90 59 -111q8 -67 -37 -84l-14 -5
q-88 -34 -166 114l-1 4q-7 -2 -76 -78q-38 -34 -58 -42l-42 -16q-154 -59 -318 179l-48 125q-87 229 65 371z" />
    <glyph glyph-name="ae" unicode="&#xe6;" horiz-adv-x="1454" 
 />
    <glyph glyph-name="ccedilla" unicode="&#xe7;" horiz-adv-x="905" 
 />
    <glyph glyph-name="egrave" unicode="&#xe8;" horiz-adv-x="909" 
 />
    <glyph glyph-name="eacute" unicode="&#xe9;" horiz-adv-x="909" 
 />
    <glyph glyph-name="ecircumflex" unicode="&#xea;" horiz-adv-x="909" 
 />
    <glyph glyph-name="edieresis" unicode="&#xeb;" horiz-adv-x="909" 
 />
    <glyph glyph-name="igrave" unicode="&#xec;" horiz-adv-x="514" 
 />
    <glyph glyph-name="iacute" unicode="&#xed;" horiz-adv-x="514" 
 />
    <glyph glyph-name="icircumflex" unicode="&#xee;" horiz-adv-x="514" 
 />
    <glyph glyph-name="idieresis" unicode="&#xef;" horiz-adv-x="514" 
 />
    <glyph glyph-name="eth" unicode="&#xf0;" horiz-adv-x="1139" 
 />
    <glyph glyph-name="ntilde" unicode="&#xf1;" horiz-adv-x="1108" 
 />
    <glyph glyph-name="ograve" unicode="&#xf2;" horiz-adv-x="1010" 
 />
    <glyph glyph-name="oacute" unicode="&#xf3;" horiz-adv-x="1010" 
 />
    <glyph glyph-name="ocircumflex" unicode="&#xf4;" horiz-adv-x="1010" 
 />
    <glyph glyph-name="otilde" unicode="&#xf5;" horiz-adv-x="1010" 
 />
    <glyph glyph-name="odieresis" unicode="&#xf6;" horiz-adv-x="834" 
d="M682 1403q5 0 12 -5v-3q0 -4 -3 -6q36 -26 40 -91q11 -78 -28 -233q-20 -15 -51 -15t-40 20l-4 40l13 148q11 129 38 129q2 15 12 16h11zM127 1400l-1 2q1 66 49 68l9 1q23 1 70 -52q85 -117 106 -272q1 -5 8 -16q-6 -45 -72 -50t-89 50q-74 223 -80 269zM231 471
q75 -160 176 -142q186 32 207 241q6 28 -16 118t-93 151q-29 16 -84 6q-70 -23 -178 -194q-27 -82 -9 -180h-3zM400 1006q100 18 192 -35q78 -65 124 -176l19 -46q57 -237 -31 -374q-32 -102 -215 -189q-29 -8 -50 -12l-50 -9q-145 -25 -268 144q-47 39 -62 104
q-32 135 65 357q152 198 203 207q53 26 73 29z" />
    <glyph glyph-name="divide" unicode="&#xf7;" horiz-adv-x="1202" 
d="M759 468v-5q0 -63 -79 -75h-18q-80 13 -80 71v18q0 55 89 66q88 -10 88 -75zM1123 787q39 0 71 -22q22 -1 22 -14q-11 0 -58 -35q-67 -31 -376 -75q-275 -31 -404 -31q-250 0 -337 44l-13 22v18q7 40 40 40q75 0 270 -5q57 0 749 58h36zM626 1017h5q75 -11 75 -67
t-93 -66q-44 0 -57 63q13 70 70 70z" />
    <glyph glyph-name="oslash" unicode="&#xf8;" horiz-adv-x="1010" 
 />
    <glyph glyph-name="ugrave" unicode="&#xf9;" horiz-adv-x="1059" 
 />
    <glyph glyph-name="uacute" unicode="&#xfa;" horiz-adv-x="1059" 
 />
    <glyph glyph-name="ucircumflex" unicode="&#xfb;" horiz-adv-x="1059" 
 />
    <glyph glyph-name="udieresis" unicode="&#xfc;" horiz-adv-x="1059" 
 />
    <glyph glyph-name="yacute" unicode="&#xfd;" horiz-adv-x="868" 
 />
    <glyph glyph-name="thorn" unicode="&#xfe;" horiz-adv-x="1010" 
 />
    <glyph glyph-name="ydieresis" unicode="&#xff;" horiz-adv-x="868" 
 />
    <glyph glyph-name="dotlessi" unicode="&#x131;" horiz-adv-x="514" 
d="M272 942q51 0 51 -66t7 -342q0 -17 -7 -105l21 -245v-21l3 -17h-3l3 -7v-51q0 -88 -51 -88h-10q-58 0 -58 143q-20 239 -20 245q3 144 3 218h3q0 3 -3 3q0 7 3 7q-3 40 -3 58v91q-153 -129 -177 -129h-7q-27 0 -27 27v7q0 31 197 201q47 71 75 71z" />
    <glyph glyph-name="circumflex" unicode="&#x2c6;" horiz-adv-x="1024" 
d="M221 1079l232 355h118l232 -355h-58l-233 216l-233 -216h-58z" />
    <glyph glyph-name="caron" unicode="&#x2c7;" horiz-adv-x="1024" 
d="M221 1434h58l233 -214l233 214h58l-232 -356h-118z" />
    <glyph glyph-name="uni02C9" unicode="&#x2c9;" horiz-adv-x="1024" 
d="M254 1195v125h516v-125h-516z" />
    <glyph glyph-name="breve" unicode="&#x2d8;" horiz-adv-x="1024" 
d="M512 1208q109 0 166 33.5t74 107.5h51q-41 -270 -291 -270q-122 0 -197 69t-96 201h51q17 -73 75 -107t167 -34z" />
    <glyph glyph-name="dotaccent" unicode="&#x2d9;" horiz-adv-x="1024" 
d="M491 1361q12 12 26 12t26 -12l71 -76q15 -12 9.5 -28.5t-11.5 -22.5l-71 -76q-17 -16 -30 -16t-20 11l-75 87q-8 8 -8 22t14 27z" />
    <glyph glyph-name="ring" unicode="&#x2da;" horiz-adv-x="1024" 
d="M335 1257q0 75 51 126t126 51t126.5 -52t51.5 -126t-51.5 -125.5t-126.5 -51.5t-126 51.5t-51 126.5zM411 1256q0 -41 29 -70t71 -29t71 29t29 70t-29.5 70.5t-70.5 29.5t-70.5 -29.5t-29.5 -70.5z" />
    <glyph glyph-name="ogonek" unicode="&#x2db;" horiz-adv-x="1024" 
d="M490 -232q0 -47 27 -75t73 -28q80 0 119 64l28 -16q-75 -131 -210 -131q-70 0 -114 35t-44 101t60.5 146.5t161.5 135.5h49q-150 -131 -150 -232z" />
    <glyph glyph-name="tilde" unicode="&#x2dc;" horiz-adv-x="1024" 
d="M609 1177q-51 -1 -115 23t-108 24t-65 -20.5t-33 -71.5h-54q38 211 197 211q45 -1 111 -24t114 -23h4q36 0 58 20t36 66h54q-40 -205 -195 -205h-4z" />
    <glyph glyph-name="hungarumlaut" unicode="&#x2dd;" horiz-adv-x="1024" 
d="M740 1434q26 0 46 -20t20 -49t-41 -74l-205 -212h-58l144 273q45 82 94 82zM454 1434q26 0 46.5 -20t20.5 -49t-41 -74l-205 -212h-58l144 273q44 82 93 82z" />
    <glyph glyph-name="endash" unicode="&#x2013;" horiz-adv-x="1322" 
d="M323 587q897 0 897 -43q88 0 88 -19v-18q0 -10 -35 -19q-15 7 -36 7q-164 -98 -659 -98h-325q-32 0 -79 -7q-132 24 -132 92q0 105 281 105z" />
    <glyph glyph-name="emdash" unicode="&#x2014;" horiz-adv-x="2048" 
d="M184 829l1576 -103q297 -41 297 -73l8 -12q0 -32 -41 -49q-39 0 -83 6q-109 -18 -355 -24q-1289 46 -1493 128q-58 33 -58 66q24 61 149 61z" />
    <glyph glyph-name="quoteleft" unicode="&#x2018;" horiz-adv-x="557" 
d="M347 1122l-11 1q-118 8 -135 370q6 92 78 218l23 -1q17 -2 53 -233q-7 -90 54 -296q-14 -62 -62 -59z" />
    <glyph glyph-name="quoteright" unicode="&#x2019;" horiz-adv-x="557" 
d="M231 1658q23 59 70 49l11 -2q115 -26 77 -387q-20 -90 -110 -204l-22 5q-17 4 -17 238q20 88 -9 301z" />
    <glyph glyph-name="quotesinglbase" unicode="&#x201a;" horiz-adv-x="557" 
d="M346 297q42 0 101 -201q16 -126 16 -137q0 -158 -138 -249q-42 -5 -58 -21h-5q-11 -1 -11 9t21 23l-5 10v11q0 18 48 190v5q-6 80 -16 149q-72 -16 -85 -16q-79 9 -79 74q0 43 79 79q32 50 117 74h15z" />
    <glyph glyph-name="quotedblleft" unicode="&#x201c;" horiz-adv-x="924" 
d="M713 1716q105 0 121 -353l-20 -105q16 -238 -25 -488l-83 -105h-31q-7 0 -26 35v15q17 387 0 544l2 115q-35 138 -16 251q11 92 63 91h15zM196 1660q109 0 124 -527v-36q-3 -281 -101 -326h-15q-46 28 -46 127l2 182q2 215 -32 463q18 118 68 117z" />
    <glyph glyph-name="quotedblright" unicode="&#x201d;" horiz-adv-x="910" 
d="M713 1709q105 0 121 -353l-20 -105q16 -238 -25 -488l-83 -105h-31q-7 0 -26 35v15q17 387 0 544l2 115q-35 138 -16 251q11 92 63 91h15zM196 1653q109 0 124 -527v-36q-3 -281 -101 -326h-15q-46 28 -46 127l2 182q2 215 -32 463q18 118 68 117z" />
    <glyph glyph-name="quotedblbase" unicode="&#x201e;" horiz-adv-x="910" 
d="M705 648q105 0 121 -353l-20 -105q16 -238 -25 -488l-83 -105h-31q-7 0 -26 35v15q17 387 0 544l2 115q-35 138 -16 251q11 92 63 91h15zM188 592q109 0 124 -527v-36q-3 -281 -101 -326h-15q-46 28 -46 127l2 182q2 215 -32 463q18 118 68 117z" />
    <glyph glyph-name="dagger" unicode="&#x2020;" 
d="M375 1340q0 38 36.5 67.5t94.5 29.5t95.5 -27.5t37.5 -65.5q-1 -38 -51 -133t-59 -189q96 8 187 60q92 52 130 51q38 0 68 -36.5t30 -94.5t-28 -95.5t-66 -37.5q-38 1 -132 51t-189 61q8 -176 110 -277q-106 -460 -112 -974h-38q-6 514 -114 974q102 101 111 277
q-96 -10 -188 -61t-130 -51t-67.5 36.5t-29.5 94.5t27.5 95.5t65.5 37.5t133 -51t189 -60q-8 97 -60 188q-52 92 -51 130z" />
    <glyph glyph-name="daggerdbl" unicode="&#x2021;" 
d="M850 298q38 0 65.5 -38t27.5 -96t-30.5 -94t-68.5 -36t-129 52t-187 59q10 -94 60 -189t50 -133t-38 -65.5t-96 -27.5t-94 30t-36 68t52 129t59 188q-94 -9 -189 -60t-133 -51t-65.5 38t-27.5 96t30 94t68 36t130 -51t187 -61q-9 226 -111 398q102 171 111 397
q-95 -10 -187 -61t-130 -51t-68 36.5t-30 94.5t27.5 95.5t65.5 37.5t133 -51t189 -60q-7 97 -59 188q-52 92 -52 130t36 67.5t94 29.5t96 -27.5t38 -65.5t-50 -133t-60 -189q96 8 187 60t129 51q38 0 68.5 -36.5t30.5 -94.5t-27.5 -95.5t-65.5 -37.5q-38 1 -134 51
q-94 50 -188 61q8 -226 110 -397q-102 -172 -110 -398q94 12 188 62q96 50 134 50z" />
    <glyph glyph-name="bullet" unicode="&#x2022;" horiz-adv-x="1024" 
d="M216 718q0 123 87 209t209 86t209 -86.5t87 -208.5t-88 -209.5t-210 -87.5t-208 87t-86 210z" />
    <glyph glyph-name="ellipsis" unicode="&#x2026;" horiz-adv-x="2048" 
d="M1622 265q14 0 31 -16l80 -86q12 -16 12 -30t-14 -30l-80 -88q-21 -20 -33 -20t-25 14l-88 101q-10 13 -10 27t16 30l82 84q15 14 29 14zM938 265q14 0 32 -16l80 -86q12 -16 12 -30t-14 -30l-80 -88q-20 -20 -32 -20t-26 14l-88 101q-10 13 -10 27t16 30l82 84
q14 14 28 14zM256 265q14 0 31 -16l80 -86q12 -16 12 -30t-14 -30l-80 -88q-21 -20 -33 -20t-25 14l-88 101q-10 13 -10 27t16 30l82 84q15 14 29 14z" />
    <glyph glyph-name="guilsinglleft" unicode="&#x2039;" horiz-adv-x="631" 
d="M530 782v-37l-205 -266l205 -266v-37h-14l-342 303l342 303h14z" />
    <glyph glyph-name="guilsinglright" unicode="&#x203a;" horiz-adv-x="631" 
d="M101 176v37l205 266l-205 266v37h14l342 -303l-342 -303h-14z" />
    <glyph glyph-name="fraction" unicode="&#x2044;" horiz-adv-x="707" 
d="M766 1480l25 -2q29 -15 41 -44l-2 -30q-19 -95 -273 -475q-107 -204 -537 -839q-64 -81 -127 -108h-6q-19 1 -14 66v6q3 48 161 406q352 539 354 564q123 154 320 436q35 21 58 20z" />
    <glyph glyph-name="fraction" unicode="&#x2215;" horiz-adv-x="707" 
d="M766 1480l25 -2q29 -15 41 -44l-2 -30q-19 -95 -273 -475q-107 -204 -537 -839q-64 -81 -127 -108h-6q-19 1 -14 66v6q3 48 161 406q352 539 354 564q123 154 320 436q35 21 58 20z" />
    <glyph glyph-name="franc" unicode="&#x20a3;" 
d="M247 357h-194v60h194v732q0 235 -103 235h-96v50h915l103 -231h-49q-59 182 -190 182l-316 -1q-102 0 -102 -235v-352h361q100 0 100 63v58h50v-342h-50v60q0 62 -100 62h-361v-281h194v-60h-194v-72q0 -235 102 -235h97v-50h-560v50h96q103 0 103 235v72z" />
    <glyph glyph-name="lira" unicode="&#x20a4;" 
d="M588 1378h-2q-100 0 -187 -97t-87 -245q0 -15 1 -30q0 -106 33 -213h380v-60h-360q12 -30 26 -60h352v-60h-321q35 -63 35 -138q0 -161 -162 -375h402q130 0 189 132l49 -1l-103 -231h-719l1 50q187 238 187 418q0 77 -34 143l-2 2h-172v60h143q-14 31 -26 60h-135v60
h113q-36 107 -36 193q0 226 123.5 347t310.5 121q75 0 185.5 -14t110.5 -34v-161h-58q-5 61 -77 102q-72 31 -160 31z" />
    <glyph glyph-name="peseta" unicode="&#x20a7;" horiz-adv-x="2028" 
d="M1168 223v687h-129q-7 -100 -53 -204t-136 -167.5t-190 -63.5t-191 64q-33 22 -60 51v-305q0 -235 102 -235h97v-50h-560v50h96q103 0 103 235v864q0 235 -103 235h-96v50h618q92 -2 182 -63t141 -175t52 -238h10q216 0 216 355h50v-355h259q42 19 110 20h2
q54 0 133.5 -13.5t79.5 -33.5v-159h-42q-4 66 -65.5 108t-129.5 42t-106.5 -36.5t-38.5 -96.5q0 -108 235 -220q122 -55 167.5 -117.5t45.5 -153.5q0 -140 -83 -231q-102 -84 -228 -86q-58 1 -96 9t-65 8l-95 -8q-124 0 -173.5 57t-57.5 176h-1zM1422 731q0 103 74 177h-179
v-685q0 -143 115 -156l-71 192l49 1q55 -130 113 -174t128 -44h7q92 0 151 52t59 136q0 102 -259 226q-101 52 -144 112t-43 163zM409 1384v-662q37 -111 104 -162q68 -52 137 -52t157 100t88 332q0 144 -46.5 256t-107.5 150t-117 39q-10 0 -21 -1h-194z" />
    <glyph glyph-name="Euro" unicode="&#x20ac;" 
d="M60 713v29q0 16 1 31h-71l17 60h58q14 145 76 281q81 178 226 274t298 96q91 0 134 -22t51 -21q20 0 34 45h41l84 -281l-40 -1q-49 134 -138 178q-43 22 -81 32v3q-50 16 -84 16q-156 0 -269.5 -108.5t-164.5 -280.5q-32 -104 -39 -211h706l-17 -60h-692q0 -30 2 -60h674
l-17 -60h-652q17 -159 87 -307t180 -222t225 -74q186 2 258 92t72 184h48v-143q0 -69 -108 -125q-107 -56 -279 -57t-316.5 97t-223.5 274q-62 135 -76 281h-108l17 60h87z" />
    <glyph glyph-name="afii61352" unicode="&#x2116;" horiz-adv-x="2271" 
 />
    <glyph glyph-name="trademark" unicode="&#x2122;" horiz-adv-x="1497" 
 />
    <glyph glyph-name="partialdiff" unicode="&#x2202;" 
d="M937 477q0 -132 -56.5 -251t-159 -185t-214.5 -66t-214.5 66t-159 184.5t-56.5 250.5t58 252t161.5 185t211.5 65t211 -65q29 -18 54 -41q-84 235 -233.5 377t-326.5 155v55q306 0 515 -285t209 -697zM232 553q0 -174 57 -303.5t125 -184.5t138 -55q71 0 130.5 68
t79.5 162t20 153t-10 141t-58 192t-116 163t-131 53h-11q-68 -5 -126 -69.5t-78 -163.5t-20 -156z" />
    <glyph glyph-name="Delta" unicode="&#x2206;" horiz-adv-x="1081" 
d="M547 1434l526 -1434h-1067zM514 1195l-406 -1072h801z" />
    <glyph glyph-name="product" unicode="&#x220f;" horiz-adv-x="1515" 
d="M511 1384q-102 0 -102 -235v-1281q0 -235 102 -235h97v-51h-560v51h96q103 0 103 235v1281q0 235 -103 235h-96v50h1419v-50h-97q-102 0 -102 -235v-1281q0 -235 102 -235h97v-50h-560v50h96q103 0 103 235v1281q0 235 -103 235h-492z" />
    <glyph glyph-name="summation" unicode="&#x2211;" horiz-adv-x="1206" 
d="M906 -366q130 0 189 182h49l-103 -232h-921v50q62 0 106 53l663 781l-663 859q-44 57 -106 57v50h921l103 -232h-49q-59 182 -189 182h-485l638 -836l-788 -914h635z" />
    <glyph glyph-name="minus" unicode="&#x2212;" horiz-adv-x="1223" 
d="M87 749l904 -1q173 -19 177 -47l6 -10q3 -27 -18 -44q-23 -2 -48 0q-60 -21 -198 -40q-735 -33 -860 26q-36 26 -40 55q7 54 77 61z" />
    <glyph glyph-name="radical" unicode="&#x221a;" 
d="M1054 1679v-60h-72l-801 -1619l-164 359l74 35l85 -185l728 1470h150z" />
    <glyph glyph-name="infinity" unicode="&#x221e;" 
d="M694 1082q67 0 128 -48t95 -135t34 -182t-34 -182t-95 -135t-128 -48t-128 49t-95 136q-12 35 -21 70q-24 -101 -78.5 -147.5t-106.5 -46.5t-100 41t-73.5 113.5t-25.5 148.5t25.5 149.5t73.5 114.5t100 41t106.5 -46.5t78.5 -147.5q9 35 21 69q34 88 95 137t128 49z
M932 749v11q-2 60 -47 125t-156 65q-22 0 -44 -4q-67 -9 -127 -62t-92 -197q12 -97 88 -149t134 -52q59 0 151.5 67t92.5 196zM294 910q-25 0 -55 -6t-73.5 -40.5t-64.5 -82.5t-21 -92v-8q2 -48 36 -103t111 -55q76 0 128 40t84 192q-15 103 -67 129t-78 26z" />
    <glyph glyph-name="integral" unicode="&#x222b;" horiz-adv-x="665" 
d="M-12 -281q-60 0 -60 29v159h36q1 -43 34.5 -64.5t63.5 -21.5h1q82 0 115 162q32 162 40 316l70 734l8 62q27 238 135 429.5t234 191.5q60 0 60 -29v-159h-36q-1 43 -35 64.5t-63 21.5q-71 0 -116 -155.5t-49 -363.5l-73 -767q-20 -231 -130.5 -420t-234.5 -189z" />
    <glyph glyph-name="approxequal" unicode="&#x2248;" 
d="M685 426q-60 0 -177.5 48.5t-172.5 48.5t-111.5 -28t-129.5 -112v156q110 125 237 125q64 0 181.5 -49.5t171.5 -49.5t110 28t129 112v-156q-108 -123 -238 -123zM685 774q-60 0 -177.5 48.5t-172.5 48.5t-111.5 -28t-129.5 -112v156q110 125 237 125q64 0 181.5 -49.5
t171.5 -49.5t110 28t129 112v-156q-108 -123 -238 -123z" />
    <glyph glyph-name="lessequal" unicode="&#x2264;" 
d="M87 1v140h839l1 -1v-139h-840zM927 1074l-625 -359l625 -355v-167l-840 481v83l840 484v-167z" />
    <glyph glyph-name="greaterequal" unicode="&#x2265;" 
d="M87 2v140h839l1 -1v-139h-840zM87 1241l840 -484v-83l-840 -481v167l625 355l-625 359v167z" />
    <glyph glyph-name="uniF001" unicode="&#xf001;" horiz-adv-x="1073" 
 />
    <glyph glyph-name="uniF001" unicode="&#xfb01;" horiz-adv-x="1073" 
 />
    <glyph glyph-name="uniF002" unicode="&#xf002;" horiz-adv-x="1081" 
 />
    <glyph glyph-name="uniF002" unicode="&#xfb02;" horiz-adv-x="1081" 
 />
    <glyph glyph-name="NULL" horiz-adv-x="0" 
 />
  </font>
</defs>
</svg>
